<?xml version="1.0" encoding="UTF-8"?>
<svg inkscape:version="1.0.2 (e86c870879, 2021-01-15, custom)" sodipodi:docname="Red-Dead-Redemption-Logo.svg" version="1.1" viewBox="0 0 569.5 238.2" xml:space="preserve" xmlns="http://www.w3.org/2000/svg" xmlns:cc="http://creativecommons.org/ns#" xmlns:dc="http://purl.org/dc/elements/1.1/" xmlns:inkscape="http://www.inkscape.org/namespaces/inkscape" xmlns:rdf="http://www.w3.org/1999/02/22-rdf-syntax-ns#" xmlns:sodipodi="http://sodipodi.sourceforge.net/DTD/sodipodi-0.dtd" xmlns:xlink="http://www.w3.org/1999/xlink"><metadata><rdf:RDF><cc:Work rdf:about=""><dc:format>image/svg+xml</dc:format><dc:type rdf:resource="http://purl.org/dc/dcmitype/StillImage"/><dc:title/></cc:Work></rdf:RDF></metadata><defs><clipPath id="cvfb"><path d="m0 0h652v510.2h-652z" inkscape:connector-curvature="0"/></clipPath><clipPath id="cvfa"><path d="m0 0h652v510.2h-652z" inkscape:connector-curvature="0"/></clipPath></defs><sodipodi:namedview bordercolor="#666666" borderopacity="1" fit-margin-bottom="0" fit-margin-left="0" fit-margin-right="0" fit-margin-top="0" gridtolerance="10" guidetolerance="10" inkscape:current-layer="g436" inkscape:cx="461.34369" inkscape:cy="443.10057" inkscape:document-rotation="0" inkscape:pageopacity="0" inkscape:pageshadow="2" inkscape:window-height="1014" inkscape:window-maximized="1" inkscape:window-width="1920" inkscape:window-x="0" inkscape:window-y="36" inkscape:zoom="0.64825125" objecttolerance="10" pagecolor="#ffffff" showgrid="false"/><g transform="matrix(1.25 0 0 -1.25 -534.3 701.8)" inkscape:groupmode="layer" inkscape:label="2bf4a8bb-c85c-41d7-824e-a6db34114106"><g transform="matrix(4.468 0 0 4.468 -1465 -542.2)"><g clip-path="url(#cvfa)"><g transform="matrix(.4763 0 0 .4763 221.7 129.3)"><g transform="translate(8.952e-6)"><g clip-path="url(#cvfb)"><g transform="translate(604.7 243.7)"><path d="m0 0h-0.063c-0.022-0.094 0.01-0.064 0.063 0" inkscape:connector-curvature="0"/></g><g transform="translate(629.9 163.6)"><path d="M 0,0 C 0.032,0.031 0.063,0.064 0.095,0.096 0.078,0.202 0.04,0.115 0,0" inkscape:connector-curvature="0"/></g><g transform="translate(542 160.9)"><path d="m0 0c-1e-3 0-2e-3 1e-3 -3e-3 1e-3 0-0.034 2e-3 -0.042 3e-3 -1e-3" inkscape:connector-curvature="0"/></g><g transform="translate(637.5 200.4)"><path d="m0 0v1e-3c-0.021 0.05-0.054 0.072-0.088 0.095 0.015-2e-3 0.034-1e-3 0.048-3e-3 -0.111 0.266-0.412 0.081-0.724 0.123 0.018 0.054-0.076 0.097-0.137 0.182-8e-3 0.048-8e-3 0.102 0.02 0.174-0.022 6e-3 -0.035 0-0.053 1e-3 3e-3 0.031-5e-3 0.054 0.01 0.093-0.17 0.052-0.236-0.084-0.332-0.069 0.022 0.056 0.044 0.11 0.095 0.137-0.04 4e-3 -0.073 0.01-0.111 0.014 0.017 0.033 0.037 0.063 0.069 0.082-0.935 0.082-1.591 0.267-2.443 0.282v0.032c-0.015 3e-3 -0.03 3e-3 -0.044 6e-3v0.087c-1.174 0.243-2.414 0.176-3.608 0.362-0.01 0.019-0.021 0.038-0.041 0.059 0.016 0.072-0.146 0.163-0.201 0.238-0.201 0.04-0.174-0.087-0.201-0.123-0.908 0.179-1.851 0.298-2.845 0.434 1e-3 0 2e-3 1e-3 3e-3 1e-3 -8e-3 0.054-0.028 0.089-0.052 0.115-9e-3 0.039-0.024 0.07-0.042 0.092 0.037 1e-3 0.078-3e-3 0.116-2e-3 -8e-3 -0.047-0.012-0.085 0.046-0.1-0.011-0.057-0.033-0.107 0.093-0.105 0.091 0.142 0.42 0.187 0.694 0.14-9e-3 -0.012-0.025-0.016-0.018-0.045 0.028-0.014 0.059-7e-3 0.088-0.011-0.027-0.014-0.056-0.027-0.041-0.084 0.175-0.087 0.378 0.037 0.579 0.071-0.016-0.011-0.028-0.026-0.024-0.058 0.028-0.018 0.055-0.023 0.083-0.027-0.026-0.01-0.043-0.026-0.038-0.068 0.238-0.148 0.481 0.247 0.682 0.178-0.071-0.06-0.201 0.037-0.247-0.125 0.055-1e-3 0.102-3e-3 0.155-5e-3 -0.045-1e-3 -0.089-0.013-0.109-0.089 0.48-0.015 0.909-0.056 1.324 0.041-0.095 0.03-0.201 0.048-0.303 0.07 0.085 0.01 0.174 6e-3 0.258 0.025-0.196 0.062-0.428 0.089-0.6 0.174 0.018 0.052 2e-3 0.11-0.042 0.171-0.025 0.076-0.09 0.156-0.145 0.23 0.039 0.08 0.17 0.128 0.07 0.229-6e-3 0-0.013 1e-3 -0.019 1e-3 0.011 0.028 0.012 0.057-0.025 0.094-1.054 0.038-2.13 0.246-3.09 0.084-1.931 0.07-5.561 0.135-7.559 0.244-0.948 0.053-1.856-0.092-2.806 0-0.582 0.057-1.163 0.097-1.746 0.125-1.305 0.064-2.612 0.062-3.915 0h-1.818c0.012 0.01 0.019 0.023 0.035 0.027-0.091 0.302 0.203 0.278 0.201 0.531-0.331 0.272 0.112 0.483 0.241 0.654-0.167-7e-3 -0.081 0.247-0.16 0.328-0.148-0.03-0.067-0.286-0.282-0.246-0.019 0.188 6e-3 0.242-0.078 0.408 0.241 0.361 0.413 0.793 0.582 1.228 2e-3 -3e-3 2e-3 -7e-3 4e-3 -0.01 0.138 0.293 0.29 0.574 0.4 0.9-0.01 1e-3 -0.014 7e-3 -0.02 9e-3 0.014 0.028 0.03 0.055 0.043 0.082 0.046-0.03 0.089-0.065 0.178-0.05-0.016 0.176 0.019 0.318 0.069 0.445 0.021 0.032 0.041 0.067 0.066 0.097-7e-3 0.015-4e-3 0.035-7e-3 0.051 0.06 0.137 0.112 0.261 0.098 0.396 0.01 0.015 0.018 0.032 0.028 0.044 0.12-0.11 0.341-0.118 0.36-0.327-0.053-0.136-0.051-0.327-0.079-0.492 0.148 0.014 0.355-0.034 0.442 0.04 0.046 0.293-0.18 0.309-0.241 0.493-0.092 0.311 0.204 0.228 0.159 0.49-0.159-0.04-0.153 0.151-0.32 0.204-0.087-0.06 0.023-0.323-0.121-0.327-0.055 0.146-0.244 0.257-0.28 0.409-0.077 0.325 0.129 0.766 0.08 1.187-0.039 0.34-0.207 0.608-0.16 1.103 0.036 0.385 0.024 0.775 0.041 1.064 0.03 0.541-0.015 1.052 0.16 1.513 0.075-1.268 0.162-1.663 0.24-2.985h0.201c-0.148 0.541-0.138 1.349-0.161 1.882h0.161c4e-3 0.34-0.022 0.354-0.161 0.449 0.039 0.114 0.108-0.06 0.161 0.04-0.022 0.17-0.254 0.123-0.24 0.328 0.061 0.076 0.154-0.058 0.24 0.04 0.057 0.43-0.268 0.682-0.201 0.982 0.114 8e-3 -0.047-0.267 0.12-0.204-0.053 0.355-0.116 0.633 0 0.9-0.091-0.011-0.151 0.01-0.159 0.083 0.017 1.442-0.311 3.583-0.322 5.888 0.032 0.104 0.245 0.024 0.241 0.165 0.091 0.192-0.144 0.288-0.241 0.491 0.052 0.057 0.19 0.024 0.241 0.081v0.287c-0.027 0.103-0.134-0.148-0.161 0.041-0.049 0.2 0.14 0.158 0.12 0.326-0.095 0.229 0.026 0.346 0.041 0.573 6e-3 0.13-0.107 0.136-0.081 0.285 0.162 0.39-0.013 0.999-0.039 1.597-0.03 0.67 0.197 1.386-0.081 1.841 0.061 0.048 0.18 0.035 0.16 0.162-0.066 0.143-0.113 0.154-0.12 0.41 0.041 0.055 0.108 0.081 0.161 0.122-0.081 0.186-0.109 0.412-0.041 0.656 0.128 0.019 0.092-0.127 0.24-0.082 0.032 0.09 0.087 0.159 0.082 0.287-0.133 0.114-0.127-0.177-0.322-0.123-0.018 0.419 0.083 0.745 0.201 1.144-0.06 8e-3 -0.146-0.014-0.16 0.04 0 0.4-0.09 1.1 0.361 1.434-0.075 0.154-0.267 0.19-0.322 0.368 0.168 0.1 0.091 0.268 0.081 0.489 0.032 0.036 0.101 0.036 0.148 0.057-3e-3 -0.141 0.289-0.278 0.319-0.107-0.098 0.03-0.203 0.146-0.288 0.129 0.011 0.011 0.021 0.023 0.022 0.043-0.137-0.01-0.197 0.068-0.211 0.185 0 0.011-1e-3 0.019-2e-3 0.028-5e-3 0.105 0.016 0.235 0.052 0.362-0.175 0.09-0.18-0.196-0.241-0.084 0.024 0.074-0.047 0.242 0.04 0.248 0.066-6e-3 0.031-0.105 0.122-0.082 0.022 0.228 0.309 0.46 0.159 0.613-0.151-0.06-0.175-0.191-0.193-0.3-8e-3 0-0.011 4e-3 -0.022 3e-3 -0.01-0.044-0.031-0.073-0.037-0.122-0.086 0.198 6e-3 0.31 0.051 0.542-0.047 7e-3 -0.113-8e-3 -0.12 0.039 2e-3 0.554 0.534 0.566 0.987 0.657-0.03-0.055-0.053-0.116-0.039-0.216 0.121 0.03 0.118-0.072 0.241-0.041-0.017 0.084 5e-3 0.208 6e-3 0.309 0.059 0.02 0.118 0.04 0.169 0.069-0.019 0.144 0.066 0.394-0.12 0.368-0.225-0.043-0.118-0.425-0.44-0.368 0.021 0.76-4e-3 1.472-0.161 2.045h0.239c0.013 0.274 0.276 0.292 0.282 0.572-0.188 0.028-0.15-0.172-0.242-0.245-0.046 0.188-0.309-9e-3 -0.318 0.041 0.33 0.315 0.368 1.171-0.121 1.351 0.078-0.322 0.287-0.665 0.16-0.941-0.152 0.158-0.338 0.283-0.322 0.614-0.256-0.017-0.24 0.244-0.24 0.489-0.313-0.1-0.28 0.15-0.401 0.246-0.133-0.179 0.066-0.366 0.16-0.449 3e-3 0.064-5e-3 0.142 0.08 0.123-0.117-0.199 0.18-0.498 0-0.613-0.154 0.156-0.337 0.282-0.32 0.613-0.296 0.043-0.249-0.265-0.401-0.369-0.014 0.259-0.202 0.338-0.321 0.49-0.313 0.54-0.456 1.253-0.8 1.76-0.032 0.126 0.109 0.078 0.08 0.204-0.506 0.534-0.8 1.285-1.284 1.842 0.138-0.018 0.228 0.011 0.201 0.163-0.166 0.031-0.207-0.065-0.362-0.041-0.158 0.062-0.373 0.37-0.121 0.491-0.308 0.094-0.681 0.121-0.96 0.244 0.146 0.217 0.496-0.116 0.561 0.041-0.264 0.174-0.74 0.282-1.004 0.327-0.041 0.049-0.051 0.104-0.057 0.158h0.138c-0.036 0.039-0.085 0.045-0.14 0.035-4e-3 0.076 6e-3 0.151-0.02 0.217-0.094 7e-3 -0.22-0.16-0.297-0.252h0.214c-0.244-0.109-0.546-0.387-0.557-0.108-0.195-0.07-0.36-0.023-0.441 0.123-0.143-0.029-0.205-0.148-0.403-0.123-0.022 0.085-0.099 0.116-0.081 0.245 0.195 0.037 0.535-0.08 0.604 0.083-0.232 0.066-0.469 0.233-0.683 0.041 4e-3 0.101 0.077 0.125 0 0.205-0.178-8e-3 -0.366-0.02-0.36 0.163h0.482c-0.136 0.123-0.356 0.154-0.602 0.163 0.01 0.12-0.091 0.126-0.081 0.246-0.03 2e-3 -0.051-2e-3 -0.07-0.011 0.017 0.025 0.011 0.055-0.033 0.092-0.086 0-0.175-1e-3 -0.265-2e-3 -0.032 0.03-0.067 0.044-0.112 2e-3 -1e-3 -1e-3 0-2e-3 -1e-3 -4e-3 -0.486-7e-3 -0.998-2e-3 -1.383 0.168-0.589-0.137-1.201-0.015-1.806-0.082-0.616-0.067-1.194-0.219-1.764-0.163-0.2 0.019-0.486-2e-3 -0.68 0.04-0.098 0.023-0.101 0.114-0.202 0.123-0.956 0.098-2.045-0.018-2.967 0.163 1.382-0.063 2.995 0.156 4.09-0.081-0.111 0.245-0.526 0.26-0.76 0.286-1.553 0.176-3.253 0.1-4.81-0.041-0.13-0.081 0.13-0.177 0.039-0.205-0.801 0.074-2.132-0.181-2.967-0.04-0.021-0.17 0.286-0.14 0.16-0.286-0.242 0.032-0.646 0.086-0.721-0.164-0.227 0.052-0.393 0.419-0.682 0.456-0.074-0.074 0.034-0.104 0-0.246-0.123-0.029-0.078-0.029-0.198 0-0.02-0.247-0.086-0.164 0-0.368-0.387 0.067-0.98 0.389-1.222-0.013-0.012 2e-3 -0.021 5e-3 -0.032 7e-3 -0.244 0.125-0.49 0.295-0.752 0.32-0.235 0.19-0.228 0.775-0.642 0.653-0.043-0.335-0.201-0.556-0.48-0.653 0.013 0.133 0.091 0.334 0 0.449-0.225-4e-3 -0.018-0.261-0.121-0.327-0.131 0.014-0.062 0.235-0.081 0.368-0.188-0.031-0.066-0.167-0.08-0.327-0.126 0.035-0.122-0.064-0.201-0.082 0.018-0.155 0.028-0.291 0.034-0.422-1.806-0.222-3.849-0.655-5.154 0.149-0.018 0.012-0.04 0.017-0.061 0.026-0.03 0.091-9e-3 0.13 0.053 0.205-0.327 0.31-0.756 0.367-1.483 0.328-0.851-0.046-1.927-0.061-2.246-0.245-0.894 0.026-1.155-0.594-2.205-0.409-0.195-0.268-0.883-0.196-1.242-0.41-0.432 0.08-0.707-0.298-1.322-0.163-0.139-0.142-0.36-0.238-0.604-0.305-0.024 0.019-0.045 0.039-0.069 0.057-2.779 2.054-7.034 1.351-10.4 1.743-0.266 0.408-0.889 0.465-1.433 0.285-1e-3 0.057-5e-3 0.109-0.037 0.134h-0.24c-0.04-0.081-0.051-0.19-0.071-0.29-0.081-0.047-0.158-0.101-0.227-0.159-1.179-0.013-2.181 0.087-3.23 0.245 0.064 0.099 0.338-0.016 0.36 0.122-0.414 0.082-0.766-0.41-1.081-0.041 0.14 0.055 0.44-3e-3 0.561 0-0.264 0.321-0.831-0.027-1.202 0-0.054 0.028-0.073 0.09-0.08 0.166-1.308-0.168-2.88-0.134-4.451-0.247-0.118-0.06 0.107-0.213-0.078-0.204-0.075 6e-3 -0.025 0.137-0.081 0.163-0.62 0.061-1.025-0.098-1.443-0.245-0.17 0.14-0.274 0.019-0.4 0-0.277-0.039-0.56 0.097-0.803 0.082-0.132-9e-3 -0.258-0.124-0.401-0.124-4.064 0.035-8.442 0.182-12.59 0.042-1.498-0.052-3.648-0.162-4.849 0-1.672-0.179-4.88-0.147-6.707-0.123-0.544-0.211-0.912-0.599-1.377-0.888-0.699 0.016-1.415-0.02-2.126-0.056-4.792-0.256-8.79 2.992-13.63 1.986-0.328-0.069-0.567-0.177-0.727-0.303-0.041 5e-3 -0.083 0.013-0.123 0.017-0.429 0.043-0.58 0.174-0.881 0.245-0.059 0.013-0.165-0.052-0.243-0.04-0.305 0.048-0.701 0.076-1.161 0.123-0.818 0.079-1.658 0.235-2.085 0.163-0.969-0.163-2.041 0.044-3.127 0.082-0.556 0.018-1.162-0.105-1.763-0.082-0.752 0.024-1.567 0.108-2.164 0-0.117-0.023-0.206-0.107-0.321-0.122-0.712-0.101-1.478 0.074-2.124-0.287-0.195 0.292-0.362-0.099-0.723 0.041-0.056-0.053-0.017-0.201-0.12-0.205-0.66 0.073-0.881-0.3-1.362-0.41 0.11-0.176-0.091-0.111-0.24-0.123-0.237-0.441-0.878-0.08-1.404 0.235-0.414-0.422-1.348 0.122-1.804-0.082-0.602 0.271-2.164 0.106-2.925 0.041-1.063 0.181-1.975-0.024-3.128 0.082-0.039-0.077 0.121-0.137 0-0.163-0.494 0.033-1.18-0.241-1.522 0 0.035-0.132-0.063-0.128-0.121-0.165-0.529-0.184-1.364-0.053-1.802-0.327-1.07 0.015-1.829-0.29-2.648-0.53-1.499 0.04-2.64 0.341-3.847 0.408 0.018 0.117 0.303-0.037 0.321 0.082-0.817 0.074-1.843 0.3-2.525 0.244-0.555 0.115-1.073 0.025-1.645 0.083-0.524 0.051-1.07 0.025-1.604 0.082-2.44 0.258-4.988 0.762-7.375 0.899-0.45 0.026-0.962 0.098-1.403-0.082 0.02-0.192 0.142-0.373 0.039-0.572-0.06-0.075-0.479 1e-3 -0.399-0.082 0.122-0.013 0.313 0.046 0.32-0.082-0.783-0.598-2.329 0.273-3.046-0.246-0.723-0.088-1.72-0.111-2.244-0.285-0.06 0.046-0.12 0.09-0.23 0.085-0.018 0.028-0.091 0.027-0.152 0 0.016-9e-3 0.029-0.019 0.042-0.029-0.027-0.053 6e-3 -0.166-0.102-0.139-0.053 0.08-5e-3 0.138 0.06 0.167-0.12 0.065-0.296 0.114-0.413 0.121-0.318-0.185 0.08-0.447-0.101-0.631-9e-3 0.03-0.02 0.063-0.041 0.099-0.126 0.055-0.134 0.01-0.281 0-0.056-0.267-0.197-0.388-0.201-0.614-0.071 0.037-0.05 0.166-0.2 0.122-0.203-0.064-0.082-0.278-0.2-0.368-0.137-0.11-0.135 0.198-0.361 0.123-0.086-0.297 0.047-0.64-0.04-0.899-0.05 0.137-0.252 0.074-0.241-0.082 0.071-0.124 0.249 0.058 0.281-0.041 0.013-0.205-0.27-0.107-0.32-0.245-0.02-0.184 0.208-0.116 0.28-0.205-0.05-0.349 0.03-0.619-0.04-0.901-0.139 0.117-0.056 0.463-0.321 0.452-0.254-0.282 0.131-0.56 0.041-0.942-0.076-0.017-0.073-0.118-0.201-0.081 0.022-0.214-0.049-0.334-0.12-0.451-0.083 0.146-0.02 0.444-0.04 0.655-0.36-0.027-0.224 0.454-0.482 0.53h-0.12c-0.177-0.392 0.193-0.558 0.12-0.981-0.267-0.243-0.439-0.717-0.36-1.186-0.064-0.083-0.296 2e-3 -0.361-0.081v-0.247c0.148-0.023 0.239-0.11 0.441-0.082 0.218-1.107 0.063-2.355 0.119-3.598 0.077-0.101 0.154-0.198 0.202-0.328-0.103-4e-3 -0.156-0.059-0.161-0.163-0.061-0.97-8e-3 -2.137 0-3.19 0.137-0.03 0.174-0.041 0.361-0.081 0.35 0.399-0.065 0.994 0.201 1.309 0.144-0.672 0.072-1.531 0.12-2.169-0.024 0.262-0.327 0.491-0.281 0.573-0.319-0.039-0.537-0.487-0.32-0.819-9e-3 -0.323-0.203-0.809 0.039-1.022 0.159-0.024-0.01 0.283 0.16 0.245 0.057-0.201-0.031-0.436-0.28-0.326v-0.449c0.118-0.223 0.442-0.081 0.522-0.165-2e-3 -0.04 0.031-0.05 0.04-0.08-0.16-0.161-0.242 0.024-0.481 0 6e-3 -0.384-0.017-0.911-0.081-1.392 0.194-0.049 0.287-0.322 0.562-0.164-0.033-0.143 0.06-0.158 0.04-0.287-0.128 0.069-0.169 0.071-0.322 0.042-0.042-0.116-0.042-0.17 0-0.287 0.125-0.088 0.222 0.083 0.322 0-0.02-0.129 0.087-0.16 0-0.244-0.085 0.049-0.205 0.187-0.322 0.081 0.059-0.411-0.052-0.87 0.242-1.187 5e-3 -0.088-0.142-0.016-0.202-0.041 0.087-0.356-0.057-0.45-0.12-0.735 0.218-0.062 0.609-0.16 0.603-0.573-0.15 0.065-0.18 0.255-0.362 0.287-0.128-0.37 0.193-0.511 0-0.738 1e-3 0.235-0.054 0.408-0.2 0.492-0.11-0.299-0.023-0.727 0.16-0.86-0.066-0.038-0.11-0.097-0.143-0.168-0.051-0.017-0.104-0.039-0.152-0.046v-0.205c0.047-0.014 0.101-5e-3 0.153 0.014 0.201-0.139 0.511-0.159 0.663-0.249-0.133-0.414 0.031-0.877-0.16-1.226-0.02 0.226-0.023 0.521-0.2 0.613-0.118-0.122-0.116-0.288-0.083-0.475-0.048 0.055-0.119 0.086-0.212 0.096-0.07-0.123-0.085-0.478 0.12-0.45 0.07 0.011 0.101 0.063 0.143 0.104 0.012-0.057 0.023-0.117 0.032-0.176 0.028-0.079 0.223 0.011 0.241-0.081 0.041-0.67 0.055-1.377 0-2.046-0.049 0.085-0.354 0.239-0.362 0 3e-3 -0.182 0.291-0.122 0.401-0.082 0.038-0.247 0.127-0.581-0.039-0.776-0.157 0.142-2e-3 0.405-0.08 0.571-0.433 0.084-0.278-0.541-0.161-0.694 0.134-0.066 0.171 0.173 0.241 0.043 0.116-0.497 8e-3 -1.024-0.281-1.23 0.119-0.362-0.099-0.814 0.12-1.062-0.076-0.366-0.189-0.924 0.161-1.269-0.026-0.192 0.052-0.489-0.041-0.613-0.358-0.014 0.137 0.472-0.2 0.531-0.05-0.335-0.064-0.538-0.04-0.857 0.058-0.092 0.317 0.022 0.32-0.123-0.031-0.404 0.182-0.983 0-1.27 0.029 0.288-8e-3 0.511-0.16 0.614 0.131 0.112 0.131 0.565-0.12 0.533-0.212-0.379-0.017-0.89 0-1.514-0.295-0.436-0.036-2.689-0.121-3.309-0.023-0.174-0.118-0.299-0.121-0.451-5e-3 -0.625 0.192-1.481 0-2.046-0.028-0.082-0.243-0.095-0.12-0.244 0.222-0.022 0.169-0.321 0.241-0.49-0.078-0.085-0.161-0.096-0.28-0.041-0.06-0.049-0.117-0.403-0.144-0.43h-5e-3c-8e-3 5e-3 -0.012 0.043-0.012 0.144-0.861-0.09-1.7-0.331-2.511-0.56l-1.259-0.207h-0.133c-0.038 0.02-0.072 0.043-0.116 0.059-0.03-0.018-0.098-0.038-0.178-0.059h-0.986c0 2e-3 2e-3 2e-3 2e-3 4e-3 -0.057 0.032-0.104 0.04-0.149 0.038 0.011 0.013 0.021 0.027 0.016 0.057-0.239 0.135-0.336-0.113-0.601-0.082-3e-3 -7e-3 4e-3 -0.01 3e-3 -0.017h-2.428c-0.39 0.083-0.738 0.107-0.992 0h-2.381c-0.365 0.348-0.471 0.285-1.399 0h-0.455c-0.213-0.063-0.454-0.131-0.745-0.207-0.424-0.109-0.796-0.067-1.122-0.162-0.128-0.11-0.271-0.205-0.464-0.25v0.236c-0.058-0.021-0.101-0.044-0.137-0.068v0.165c-0.519-0.196-0.067-0.448-0.45-0.778-0.208 0.042-0.613-0.021-1.05-2e-3 -0.105 0.186-0.264 0.317-0.191 0.683-0.117 0.181-0.253 0.344-0.403 0.492 1e-3 -0.029 5e-3 -0.053 7e-3 -0.079-0.05 0.056-0.091 0.122-0.144 0.176 0.014-0.431 0.123-0.708 0.079-1.27-0.246-0.183-0.534-0.103-0.72-0.084-0.378 0.041-0.83-0.23-1.143-0.095-0.05 0.021-0.097 0.051-0.139 0.095-0.164-0.189-0.645-0.052-0.723-0.326 0.064-0.032 0.116-0.053 0.164-0.066-6e-3 -0.012-0.022-0.014-0.025-0.028v-1e-3c0.198-0.099 0.287-0.095 0.428-0.054-4e-3 -0.017-0.016-0.025-8e-3 -0.054 0.051-9e-3 0.1-0.01 0.15-0.017-9e-3 -0.02-0.022-0.037-0.01-0.079 0.501-0.088 0.991-0.048 1.427-0.072-0.033-0.143 0.154-0.299 0.198-0.447-0.431-0.369-1.207-0.237-2.002-0.288 0.018-0.103 0.103-0.135 0.118-0.246 0.03 5e-3 0.062 4e-3 0.093 7e-3 0.019-0.029 0.04-0.056 0.045-0.1 0.61 0.09 1.256 5e-3 1.836-0.136 0.02-0.139-0.112-0.168-0.169-0.302 0.012-0.472 0.017-0.652 0-1.143-0.037-0.158-0.247-0.132-0.24-0.332 0.281-0.147 0.205-0.415 0.24-0.694-0.259-0.477 0.113-1.097 0-1.801-0.014-0.098-0.139-0.076-0.121-0.204 0.039-0.043 0.147-0.013 0.121-0.123-0.212-0.735-0.022-1.46-0.121-2.292 0.014-0.083 0.08-0.108 0.121-0.162-0.263-0.454 6e-3 -1.022-0.082-1.516-0.021-0.126-0.107-0.204-0.118-0.326-0.054-0.632 0.144-1.283-0.08-1.759 0.036-0.043 0.148-0.013 0.118-0.125-0.234-0.789-0.158-1.255 0-1.964-0.255-0.269 0.118-1.134-0.199-1.513 0.047-0.077 0.099-0.144 0.121-0.245-0.216-0.468 0.028-0.67-0.082-1.23 0.053-6e-3 0.118 3e-3 0.144-0.03-4e-3 -0.02 0-0.034-5e-3 -0.055h6e-3c-0.118-0.295-0.075-0.561-0.184-0.895 0.029-0.11 0.184-0.086 0.199-0.206-0.135-0.671-0.021-1.39-0.118-2.168 0.04-0.075 0.098-0.021 0.143-8e-3 -3e-3 -0.026-2e-3 -0.051-5e-3 -0.077 0.02-0.037 0.044-0.039 0.07-0.032 0.024-0.196-0.129-0.249-0.168-0.456 0.143-0.154 0.064-0.518 0-0.778 0.183-0.888 0.096-1.709 0.279-2.373-0.014-0.106-0.118-0.123-0.121-0.244 0.152-0.014 0.019-0.311 0.161-0.327-0.046-0.076-0.211-0.027-0.161-0.204-6e-3 -0.073 0.088-0.038 0.139-0.049 1e-3 -0.012-4e-3 -0.018 1e-3 -0.035-2e-3 -0.02 0.01-0.025 0.021-0.031-2e-3 -4e-3 2e-3 -4e-3 0-9e-3 0.086-0.249-0.196-0.126-0.161-0.329 0.03-0.045 0.084-0.066 0.14-0.082 0.05-0.078 0.164-0.092 0.261-0.121 0-1e-3 1e-3 -1e-3 1e-3 -1e-3 -0.03-0.695-0.295-1.322-0.162-2.006-0.137-0.989-0.141-1.783-0.24-2.7-0.161-0.367-0.083-0.808-0.158-1.307 0.011-0.111-0.156-0.037-0.121-0.166 0.05-5e-3 0.114 3e-3 0.142-0.029-5e-3 -0.013-0.011-0.026-4e-3 -0.051h2e-3c-0.215-0.326 0.036-1.12-0.341-1.514 0.161-0.908 0.048-1.304-0.161-2.405 0.092-0.646 0.241-1.58 0.381-2.269-0.016 6e-3 -0.019 0.024-0.041 0.022-5e-3 -0.093 4e-3 -0.178 7e-3 -0.268-0.046 0.12 0.03 0.362-0.146 0.344-0.042-0.792 0.19-1.434 0.36-2.169-0.245 0.237-0.194-0.318-0.362-0.456-0.025 0.01-0.054 0.016-0.092 0.012-0.015 0.061-0.063 0.088-0.144 0.079 0.028-0.181-0.069-0.232-0.041-0.409 0.13 0.027 0.145-0.011 0.139-0.066 1e-3 -5e-3 -2e-3 -7e-3 -1e-3 -0.012 2e-3 0 1e-3 -1e-3 3e-3 0-0.012-0.068-0.047-0.159 0.02-0.211 0.06 3e-3 0.088 0.038 0.109 0.081-0.012-0.057-0.022-0.117 0.029-0.157 0.131 5e-3 0.13 0.147 0.175 0.241 0.013 8e-3 0.027 0.016 0.04 0.023 0.025-0.029 0.021-0.089 0.025-0.141 0.237 0.205 0.399 0.051 0.68 0.082 0.085 0.047 0.053 0.212 0.13 0.265 0.031-0.017 0.065-0.029 0.1-0.042 0.089-0.032 0.176-0.066 0.244-0.118 0.027-0.02 0.056-0.037 0.073-0.068 0.091-0.314-0.151-0.289-0.162-0.492 0.056-0.026 0.101-0.032 0.149-0.045-2e-3 -0.012-0.01-0.018-0.011-0.032 0.33-0.152 0.515-0.06 0.847-0.098-0.136-0.19-0.196-0.565 0.016-0.725 0.015 0.019 0.027 0.046 0.039 0.068 0.023-0.055 0.051-0.108 0.099-0.146 0.203 0.264 0.219 0.906 0.528 0.824 0.025-0.018 0.045-0.026 0.073-0.052-0.052-0.054-0.052-0.148 0-0.202 0.044-0.013 0.084-0.029 0.125-0.043 6e-3 -0.011 4e-3 -0.024 0.013-0.033 0.313-0.09 0.555-0.251 1.001-0.205v0.326h0.24c-3e-3 0.153 0.064 0.233 0.16 0.286 0.59 0.267 1.429-0.106 2.246-0.122 0.598-0.012 1.216 0.06 1.803 0 0.586-0.062 0.559-0.322 1.131-0.244 0.261-0.137 0.72-0.174 1.082-0.083 1.047-0.152 1.869-0.282 2.99-0.324 1e-3 -0.017-2e-3 -0.033 6e-3 -0.05 0.081 0.046 0.127 0.105 0.166 0.167 0-0.057-0.077-0.148-0.033-0.245 0.25 0.142 0.205 0.396 0.439 0.535 0.266 0.153 0.712 0.045 0.841 0.448 0.489-0.057 0.942 0.117 1.343 0.011-0.151-0.081-0.428-0.031-0.551-0.138v-0.207c0.038-0.045 0.084-0.055 0.131-0.056v-0.019c0.077-0.089 0.18-0.056 0.268-0.054-0.023-0.328-0.636-0.053-0.84-0.196 0.126-0.373-0.666-0.196-0.482-0.615 0.046-8e-3 0.077-1e-3 0.116-2e-3 4e-3 -0.024 2e-3 -0.045 0.015-0.075 0.42-0.071 0.545 0.155 0.925 0.122 0.058-0.05 0.121-0.095 0.199-0.131 0.24-0.162 0.603-0.23 0.905-0.232 0.017-0.098-0.017-0.246 0.046-0.294 0.043-8e-3 0.063 7e-3 0.094 0.011 4e-3 -0.037 0.013-0.069 0.035-0.087 0.343-0.065 0.263 0.303 0.363 0.489 1.124 0.155 2.286 0.031 3.486 0.081 0.093 0.044 0.136 0.136 0.253 0.153 0.026-0.035 0.065-0.058 0.119-0.067 0.033-0.045 0.068-0.089 0.149-0.086 0.966 0 1.964 0.025 3.087 0-0.052 0.218 0.115 0.211 0.081 0.409-0.037 0.033-0.086 0.035-0.13 0.054-1e-3 9e-3 3e-3 0.013 1e-3 0.024-0.268 0.23-0.698 0.067-1.038 0.113 0.345 0.145 0.845 0.049 1.287 0.057 0.171 2e-3 0.337 0.056 0.484 0.072-0.209-0.076-0.429-0.123-0.411-0.365 7e-3 -0.096 0.082-0.157 0.188-0.2 0.252-0.262 1.267-0.11 1.658-0.085-1e-3 -2e-3 0-3e-3 -1e-3 -5e-3h0.138c-4e-3 -0.025 2e-3 -0.045-0.012-0.074h0.441c0.019 0.083 0.063 0.138 0.102 0.199 5e-3 -0.014 3e-3 -0.025 0.013-0.041 0.033-4e-3 0.069-4e-3 0.103-6e-3 4e-3 -0.022 6e-3 -0.042 0.022-0.069 0.389-0.04 0.873 0.018 1.283-0.123 0.112 0.186 0.38 0.293 0.24 0.615h0.121c-0.04-0.086-0.041-0.196 0.034-0.255 0.041-9e-3 0.063 1e-3 0.088 8e-3 0.012-0.029 0.012-0.063 0.037-0.082 0.123-0.028 0.147 0.042 0.241 0.041 6e-3 0.033-1e-3 0.052-3e-3 0.077 0.045 2e-3 0.09 1e-3 0.136 2e-3 -3e-3 -0.027-0.018-0.043-0.013-0.079 0.413 0.023 0.849-0.024 1.122 0.191 6e-3 -0.045 0.012-0.09 0.038-0.114 0.035 0.02 0.06 0.015 0.091 0.025 5e-3 -0.039 0.01-0.08 0.033-0.102 0.321 0.188 0.438-0.129 0.681-0.081 0.014 0.146 0.144 0.45 0.331 0.549-0.081-0.091-0.188-0.178-0.135-0.268 0.032-9e-3 0.075-6e-3 0.12-2e-3 -7e-3 -0.025-0.011-0.05 4e-3 -0.076 0.045-0.011 0.112-1e-3 0.173 4e-3 -0.044-0.032-0.122-0.026-0.094-0.132 0.05-9e-3 0.08 1e-3 0.125-4e-3 -9e-3 -0.016-0.013-0.037-3e-3 -0.071 0.368-0.064 0.592-0.016 0.841 0.121 0.014-7e-3 0.025-0.018 0.042-0.024 0.087-0.066 0.182-0.123 0.361-0.097 0.061 0.265 0.215 0.465 0.199 0.697 0.29-0.127 0.721-0.012 0.99-0.064 0.031-0.022 0.075-0.029 0.093-0.067-0.21 0.058-0.489 0.029-0.564-0.162 0.034-0.04 0.079-0.056 0.125-0.073l-3e-3 -3e-3c0.179-0.21 0.546-0.053 0.883 0 0 0.109-0.023 0.24 0.08 0.245 0.604 0.04 1.288 0.04 1.818 8e-3 -0.048-0.102-0.136-0.163-0.055-0.3h0.098c3e-3 -0.024 5e-3 -0.047 0.023-0.078h0.2c0.015 0.192 0.05 0.238 0 0.412 0.187-0.017 0.399 0.066 0.552 0.045 0.016-0.019 0.039-0.024 0.049-0.053-0.161-0.127-0.354-5e-3 -0.519-0.08v-0.207c0.033-0.016 0.076-0.024 0.119-0.032v-0.043c0.166-0.086 0.514-0.044 0.64 0.04 0.095 0.08-0.093 0.209 0 0.288 0.415 0.063 0.704 0.014 0.939-0.107 0.049-0.034 0.1-0.065 0.145-0.105 5e-3 1e-3 0.01 1e-3 0.015 1e-3 0.035-0.026 0.072-0.047 0.105-0.077 0.862 0.145 1.541-0.209 2.245 0.248 0.151-0.02 0.363 0.019 0.516 0-0.012-0.085-0.115-0.078-0.076-0.213 0.039-0.02 0.078-0.012 0.118-0.013-2e-3 -0.018-5e-3 -0.034 3e-3 -0.062 0.132-0.068 0.274-9e-3 0.4 0.04 0.081 0.055-0.013 0.287 0.121 0.288 0.269-0.016 0.521 0.035 0.755 0.055-0.107-0.033-0.191-0.087-0.274-0.145-0.081 0.119-0.501 0.152-0.479-0.079 0.036-0.098 0.091-0.131 0.155-0.139 0.136-0.196 0.4 0.063 0.603-0.102 0.162 0.15 0.59 0.029 0.803 0.122 0.126-0.033 0.169-0.154 0.321-0.163 1.471 0.022 2.435-0.038 3.954-0.08 0.016-0.048 0.028-0.099 0.099-0.09 8e-3 1e-3 0.012 5e-3 0.02 7e-3 0.014-0.045 0.028-0.09 0.095-0.082 0.236 0.039 0.307 0.247 0.586 0.241 0.019-0.079-0.034-0.176 0.019-0.25 0.028-2e-3 0.066-3e-3 0.096-5e-3 1e-3 -0.024 4e-3 -0.048 0.02-0.069 1.872-0.123 5.807-0.216 7.583-0.122 2e-3 0.011 1e-3 0.027 1e-3 0.039 0.014 2e-3 0.028 1e-3 0.04 3e-3v-0.083c0.208-0.019 0.259 0.117 0.481 0.082v0.229c0.016-0.016 0.039-0.025 0.067-0.03 0.039-0.045 0.066-0.101 0.173-0.077 1.952 0.602 3.641 1.467 5.209 2.454 0.255 0.147 0.564-0.073 0.844-0.04 0.195 0.025 0.294 0.221 0.481 0.285 0.256 0.094 0.534 0.074 0.72-0.03 0.046-0.051 0.084-0.107 0.093-0.18h0.069c0.011-0.026 0.035-0.044 0.039-0.075h0.296c0.048-0.088 0.091-0.183 0.157-0.25h0.058c0.017-0.026 0.031-0.055 0.051-0.077h0.361c7e-3 0.062-0.015 0.151 0.04 0.165 0.741 0.122 1.276-5e-3 2.005 0.08 0.391 0.047 0.726 0.33 0.921 0.327 0.109-3e-3 0.226-0.15 0.36-0.163 0.225-0.021 0.385 0.079 0.571 0.085-0.027-0.089-0.129-0.118-0.035-0.211 0.029 1e-3 0.046 1e-3 0.072 1e-3 -5e-3 -0.021 1e-3 -0.046 0.034-0.079 0.342 7e-3 0.471 5e-3 0.515 2e-3 -2e-3 8e-3 0.061 0.027 0.44 0.08 0.115-0.019 0.127-0.145 0.281-0.122 0.395 0.259 1.056 0.014 1.683 0.08 0.035 0.032 0.084 0.07 0.138 0.104-5e-3 -0.018-0.012-0.033-3e-3 -0.066 0.038-4e-3 0.071-7e-3 0.107-0.011-5e-3 -0.018-0.012-0.034-2e-3 -0.067 1.119-0.115 1.961-0.215 3.127-0.205 0.035 0.016 0.067 0.051 0.1 0.09-1e-3 -0.017-8e-3 -0.028-3e-3 -0.053 0.032 8e-3 0.074 0.012 0.11 0.019-0.011-0.023-0.016-0.052-5e-3 -0.096 0.351 0.088 0.902 0.118 1.435 0.049 7e-3 -0.033 6e-3 -0.074 0.025-0.095 0.028 3e-3 0.052 0.011 0.079 0.014 6e-3 -0.031 5e-3 -0.07 0.023-0.091 0.299 0.025 0.525 0.125 0.728 0.223-0.011-0.02-0.023-0.039-0.027-0.067 0.03-0.035 0.07-0.045 0.109-0.055-2e-3 -7e-3 -7e-3 -0.011-8e-3 -0.019 0.112-0.127 0.302-0.038 0.442-0.073 6e-3 -7e-3 0.015-6e-3 0.02-0.015h1e-3c0.037-0.014 0.073-0.032 0.098-0.076 0.321 0.162 0.837 0.31 1.256 0.383-0.064-0.063-0.174-0.077-0.196-0.184 0.04-0.015 0.079-0.032 0.117-0.05-3e-3 -0.01-0.013-0.015-0.015-0.027 0.273-0.108 0.526-0.276 0.81-0.095 0.013-0.024 0.035-0.039 0.078-0.031 0.019-0.045 0.027-0.102 0.115-0.078 0.263 0.244 0.761 0.089 0.962-0.041 0.46 0.37 1.502-0.331 1.923 0.123-0.053 0.073-0.111 0.114-0.171 0.146-0.273 0.257-0.633 0.036-0.914 0.182-0.026 0.025-0.053 0.046-0.077 0.082 0.53 0.085 1.201-0.309 1.522 0.08 0.236-0.137 0.597 0.109 0.723-0.122 0.262 0.394 0.628-0.026 0.988 0.198 0.017-0.013 0.035-0.024 0.053-0.032 0.129-0.142 0.319-0.126 0.481-2e-3 0.138-0.037 0.174-0.176 0.362-0.164 0.077 0.058 0.077 0.194 0.201 0.204 0.59 0.06 0.996-0.046 1.642 0.082 0.055-0.042 0.123-0.068 0.16-0.122 0.423 0.267 0.922-0.184 1.525-0.042 0.055-0.078 0.165-0.102 0.274-0.128-0.03-0.027-0.07-0.044-0.051-0.124 0.04-2e-3 0.078-6e-3 0.117-0.01-0.013-0.015-0.031-0.026-0.021-0.064 0.22-9e-3 0.437-0.082 0.563 0.081-0.062 4e-3 -0.135-5e-3 -0.192 3e-3 0.035 0.017 0.069 0.038 0.097 0.074-0.059 3e-3 -0.127-6e-3 -0.184-1e-3 0 3e-3 -3e-3 4e-3 -3e-3 7e-3 0.321 6e-3 0.439-0.04 0.672 0.095 0.02-0.01 0.038-0.021 0.059-0.031 9e-3 -0.023 0.024-0.04 0.046-0.05 3e-3 -8e-3 0.01-0.011 0.011-0.02-0.044-0.123-0.245-0.08-0.243-0.246 0.038 3e-3 0.08 1e-3 0.123 0-0.014-0.02-0.027-0.041-0.026-0.076 0.126 8e-3 0.295-0.027 0.36 0.041 0.085 0.096 0.126 0.236 0.265 0.276 0.041-0.05 0.095-0.085 0.142-0.126 0.048-0.067 0.102-0.13 0.196-0.15 0.246 0.031 0.549 0.23 0.785 0.199-0.054-0.04-0.13-0.055-0.119-0.164 0.04 0 0.07-2e-3 0.107-3e-3 -9e-3 -0.019-0.015-0.041-0.011-0.073 0.368 4e-3 0.577-0.078 0.761 0.122 0.863-0.108 1.689-0.096 2.555-0.233-0.015-0.086-0.201 0-0.164-0.139 0.036-4e-3 0.074-7e-3 0.111-0.01-0.017-0.012-0.028-0.029-0.018-0.068 0.35-0.039 0.752-0.021 0.962-0.204 0.451 0.232 0.89-0.087 1.323-0.123 0.408-0.032 0.823 0.184 1.203 0 0.072 0.036 0.102 0.114 0.241 0.082 0.218-0.126 0.363-4e-3 0.56 0 0.541 8e-3 1.15-0.353 1.685-0.082 0.026-0.038 0.084-0.045 0.136-0.058 4e-3 -0.01 0.012-0.015 0.012-0.029-0.034-0.151-0.322-0.054-0.479-0.083 0.034-0.106 0.097-0.167 0.17-0.211 0.271-0.33 0.968 0.023 1.322-0.19 0.109-0.031-0.027 0.192 0.081 0.164 0.221-0.142 0.276 0.033 0.522-0.082 0.244 0.509 0.89 0.246 1.481 0.409 0.05 0.012 0.075 0.102 0.12 0.121 0.39 0.152 0.742 0.113 1.085 0.205 0.487-0.29 1.01 0.355 1.36 0 0.3 0.172 0.651-0.186 0.954 0.116 0.037-0.042 0.07-0.088 0.119-0.111 0.217-0.192 0.617-0.134 0.932-0.087 0.214-0.178 0.342 0.027 0.522-0.204 0.023 0.226 0.331 0.17 0.517 0.108 0.029-0.174-0.171-0.12-0.163-0.278 0.029-0.032 0.066-0.031 0.105-0.029-6e-3 -0.015-0.019-0.023-0.017-0.045 0.055-0.063 0.134-0.041 0.21-0.018 7e-3 -0.039 5e-3 -0.088 0.022-0.113 0.027-0.013 0.052-0.012 0.075-7e-3 7e-3 -0.019 2e-3 -0.052 0.013-0.067 0.031-0.015 0.059-0.015 0.086-8e-3 -0.05-0.171 0.091-0.538-0.174-0.49 0.206-0.225-0.056-0.858 0.199-1.107 0.013 0.02 0.013 0.053 0.019 0.08 0.019-0.055 0.029-0.115 0.069-0.154 0.088 0.136 3e-3 0.443 0.084 0.582 0.01-0.308-0.13-0.767 0.111-0.913 0 0.012 1e-3 0.018 1e-3 0.029 0.021-0.041 0.045-0.08 0.087-0.106 5e-3 0.581 0.134 0.442 0.321 0.618 0.04-0.175-0.025-0.455 0.122-0.517 0.018-0.055 0.051-0.094 0.116-0.101 0.082 0.032-0.024 0.215-0.04 0.286 0.052 0.057 0.191 0.026 0.24 0.083-0.128 0.38 0.154 0.431 0.162 0.775 0.098-5e-3 0.192-5e-3 0.24 0.041 0.057 0.383-0.205 0.665 0.04 0.902 0.284-0.12 0.548-0.26 0.881-0.33 0.06 0.221-0.182 0.623 0.122 0.739-0.151 0.252 0.028 0.358 0 0.694 0.384-0.029 0.658 0.178 0.842 0 0.076 0.043 0.059 0.18 0.133 0.226 0.017-0.04 0.041-0.051 0.077-0.03 7e-3 -0.078 0.044-0.115 0.095-0.076 0.021-0.114 0.056-0.28 0.177-0.349 0.016-0.024 0.048-0.031 0.07-0.049 0-7e-3 1e-3 -6e-3 1e-3 -1e-3 0.027-0.021 0.046-0.051 0.084-0.058-1e-3 0.106 0.012 0.469 0.084 0.419 0.026-5e-3 0.039 4e-3 0.06 5e-3 -8e-3 -0.036-0.016-0.061-0.024-0.061v-0.206c0.038 6e-3 0.063 0.122 0.085 0.272 0.012 4e-3 0.03 0 0.041 4e-3 -0.014-0.086-0.028-0.147-0.041-0.147v-0.205c0.043 6e-3 0.075 0.177 0.097 0.377-0.016-9e-3 -0.034-0.016-0.055-0.024 6e-3 0.034 0.012 0.078 0.017 0.119 0.017 8e-3 0.031 0.017 0.051 0.023-4e-3 -0.04-8e-3 -0.08-0.012-0.118 0.066 0.035 0.13 0.073 0.26 0.042 0.264 0.353-0.121 0.667-1e-3 1.02 0.016-0.022 0.035-0.041 0.065-0.049 0.035-0.05 0.059-0.109 0.178-0.07 0.064 0.314-8e-3 0.571 0.04 0.941 0.068 0.056 0.232-0.066 0.2 0.163-9e-3 0.069-0.045 0.072-0.085 0.065 0 6e-3 2e-3 6e-3 1e-3 0.012-0.015 0.107-0.087 0.071-0.149 0.058 0.027 0.142 0.27 0.066 0.273 0.233 0.036 0.118-0.021 0.142-0.088 0.156-0.017 0.065-0.086 0.076-0.152 0.093-0.029 0.543 0.016 1.009 0.197 1.334 0.104-0.162 0.061-0.475 0.078-0.727 0.042 3e-3 0.056-0.021 0.084-0.032 1e-3 -0.014 0-0.031 1e-3 -0.046 0.061 4e-3 0.09-0.024 0.126-0.047 0.059-0.112 0.091-0.251 0.195-0.318 0.037-0.073 0.088-0.133 0.203-0.128 0.176 0.395-0.228 0.737-0.014 1.003 0.026-0.056 0.054-0.11 0.111-0.134 0.031-0.059 0.075-0.107 0.182-0.089 0.095 0.436-0.041 0.814-0.04 1.225 0.01 7e-3 0.025 8e-3 0.037 0.013-5e-3 -0.092 0-0.175 0.079-0.178 0.032 0.047 0.052 0.108 0.04 0.204h-0.024c0.117 0.014 0.245 0.016 0.227 0.166-0.337 0.247 0.085 0.682-0.078 1.105 0.123 0.126 0.254-8e-3 0.36 0.122 0.03 0.166-0.027 0.243-0.112 0.29-0.048 0.079-0.14 0.112-0.239 0.14-0.013 0.029-0.03 0.051-0.065 0.052-5e-3 -6e-3 -8e-3 -0.017-0.012-0.026-7e-3 2e-3 -0.012 5e-3 -0.018 7e-3 -0.219 1.522 0.088 2.245-0.236 3.575 0.309 1.102 0.01 2.597 0.121 3.929-0.031 8e-3 -0.058 0.022-0.086 0.033 1e-3 0.016 0 0.033 1e-3 0.049-0.116 0.032-0.213 0.081-0.32 0.121-0.318-0.313-0.056-0.916-0.151-1.355-0.098 0.652-0.062 1.409-0.081 2.045 0.043-0.128 0.096-0.245 0.193-0.319 7e-3 3e-3 0.011 0.01 0.019 0.014 0.023-0.031 0.034-0.075 0.064-0.099 0.518 0.204 0.315 0.998 0.294 1.655 0.051-0.03 0.127-0.033 0.212-0.029-0.023 0.148 0.047 0.198 0.081 0.287-0.071 0.036-0.116 0.13-0.201 0.042-0.028-0.113 0.081-0.084 0.081-0.164-0.038-0.044-0.128-0.033-0.173-0.068-2e-3 0.13 4e-3 0.253 0.027 0.364-0.049 0.023-0.075-6e-3 -0.095-0.04 2e-3 0.018 3e-3 0.037 6e-3 0.054 0.203 0.168 0.417 0.123 0.67 0.214 0.011-0.033 0.038-0.047 0.076-0.053 0.011-0.054 0.029-0.102 0.104-0.093-4e-3 0.021 8e-3 0.028 9e-3 0.046 0.062-1e-3 0.081 0.043 0.149 0.037 0.01 0.054-0.012 0.084-0.042 0.102 0.056 0.012 0.118 9e-3 0.177-0.01-0.029-0.035-0.081-0.046-0.06-0.134 0.051 0 0.083 0.016 0.125 0.023-0.028-0.019-0.056-0.039-0.038-0.106 0.203 0 0.344 0.059 0.402 0.205 0.389-0.088 0.737-0.072 1.002 0.123 0.663-0.027 1.043 0.044 1.321 0.45-0.067-0.04-0.157-0.053-0.236-0.079 0.054 0.05 0.108 0.096 0.154 0.164-0.552-0.33-1.556-0.138-2.123-0.369-0.371 0.177-1.072-0.06-1.529 0.123 0.171 0.02 0.357 0.025 0.554 0.028 1e-3 0 1e-3 -1e-3 1e-3 -1e-3 3e-3 -1e-3 4e-3 1e-3 7e-3 1e-3 0.362 9e-3 0.734 0.036 1.008 0.254-0.066 7e-3 -0.156 5e-3 -0.256 0 0.057 0.029 0.121 0.044 0.171 0.084-0.108 0.011-0.28 0-0.454-0.013 0.7 0.127 1.47 0.111 2.194 0.13-0.057-0.026-0.111-0.056-0.094-0.156 0.048 0.035 0.095 0.044 0.139 0.048-0.038-0.024-0.069-0.057-0.056-0.134 0.224 0.164 0.404-0.107 0.561 0.124-0.016 0.045-0.086 0.034-0.139 0.04 0.019 0.015 0.039 0.016 0.057 0.043-4e-3 0.012-0.016 0.015-0.026 0.021 0.034 9e-3 0.07 0.018 0.104 0.027 0.047-0.022 0.114-0.026 0.19-0.019 0 0.039 9e-3 0.065 0.023 0.089 0.059 0.023 0.118 0.047 0.173 0.077-8e-3 -0.032-0.02-0.059-0.034-0.084 0.045-0.034 0.107-0.052 0.199-0.042 6e-3 0.038-2e-3 0.062-0.013 0.08 0.141-0.023 0.318 0.027 0.47-0.069 1.108 0.217 2.142 0.135 3.567 0.288-0.014 0.021-0.035 0.031-0.055 0.044 0.044-4e-3 0.086-5e-3 0.129-0.01 0.099-0.207-0.202-0.05-0.147-0.214 0.312-0.019 0.66 4e-3 0.887-0.113 6e-3 -0.04 0.021-0.071 0.062-0.076 0.014 6e-3 7e-3 0.026 7e-3 0.043 3e-3 -3e-3 8e-3 -3e-3 0.012-6e-3 0.44 0.255 0.895-0.036 1.332-0.052 0.408-0.011 0.812 0.228 1.2 0.065 0.07 0.043 0.095 0.119 0.236 0.096 0.112-0.058 0.204-0.053 0.293-0.033-0.016-0.63 0.011-0.95 0.053-1.06-0.034-1.414-0.066-2.823-0.121-4.207 0.047-0.061 0.15-0.065 0.2-0.123 0.021-0.34-0.126-0.827 0.12-1.021-0.037 1.013 0.029 2.004 0.12 3.026 0.025 0.29 0.031 0.583 0.029 0.878 0.014-0.105 0.027-0.2 0.037-0.275 7e-3 0.596 0.156 1.504 0.041 1.841-0.055-0.082-0.089-0.202-0.111-0.339-0.011 0.363-0.017 0.727 4e-3 1.085 4e-3 0.068 0.013 0.155 0.024 0.252 0.017-1e-3 0.036-3e-3 0.054-4e-3 8e-3 -0.226 0.016-0.454 0.029-0.667 0.031 0.208 0.065 0.433 0.097 0.657 0.181-0.02 0.366-0.05 0.552-0.076 6e-3 -1.074 2e-3 -2.134-0.07-3.186 4e-3 -0.145 0.113-0.184 0.117-0.327-0.074-2.111-0.152-3.429-0.201-5.29-0.032-1.369 0.11-2.753 0.042-4.091-0.061-1.131-0.221-2.251 0-3.355-0.027-0.123-0.118-0.176-0.079-0.368 0.086 0.082 0.128 0.208 0.15 0.355 3e-3 -0.021 3e-3 -0.042 7e-3 -0.064-0.027-0.122-0.121-0.179-0.08-0.369 0.29 0.28 0.118 1.031 0.159 1.564 0-0.915 0.094-1.968-0.077-2.675 5e-3 -0.039 0.044-0.043 0.082-0.048-1e-3 -8e-3 -1e-3 -0.019-3e-3 -0.027 5e-3 -0.038 0.043-0.043 0.082-0.048v-1e-3c0.148-0.51 0.082-1.454 0.159-1.964 0.036 0.039 0.045 0.088 0.061 0.135 5e-3 -0.069 8e-3 -0.15 0.017-0.209 0.052 0.055 0.077 0.123 0.089 0.196-1e-3 -0.704 0.019-1.363 0.395-1.757 5e-3 8e-3 2e-3 0.014 6e-3 0.022 0.025-0.032 0.043-0.068 0.071-0.098 0.128 0.192-0.094 0.326-0.16 0.453-0.102 0.683-0.118 1.481-0.104 2.294 0.024-0.01 0.052-0.015 0.085-0.014-5e-3 -0.095 0.01-0.17 0.093-0.213 0.017-0.047 0.047-0.087 0.127-0.106 0.13 0.107-0.074 0.332 0.065 0.395 0.14-0.207 0.241-0.551 0.297-0.808 0.027-0.116 0.073-0.312 0.013-0.402-0.013 0.018-0.027 0.035-0.055 0.038-3e-3 -3e-3 -1e-3 -5e-3 -4e-3 -9e-3 -8e-3 0.045-0.028 0.079-0.074 0.083-0.114-0.119 0.098-0.141 0.04-0.325 0.029 8e-3 0.051 8e-3 0.079 0.013 5e-3 -0.026 0.01-0.052-1e-3 -0.089 0.215 0.062 0.355 0.025 0.479 0.07 0.037-0.052 0.139-0.04 0.23-0.038-0.041 0.161 0.12 0.122 0.08 0.285-0.039 9e-3 -0.07 0.029-0.111 0.036-0.016 0.025-0.047 0.036-0.076 0.05-9e-3 0.027-0.023 0.047-0.046 0.06-0.016 0.018-0.04 0.029-0.034 0.069 0.363 0.189 0.585 6e-3 0.844 0.067-7e-3 -0.059-0.015-0.119 0.041-0.115 9e-3 0.027 0.026 0.047 0.04 0.069-6e-3 -0.067-0.028-0.149 0.038-0.143 6e-3 0.017 0.018 0.028 0.025 0.043 7e-3 -0.015 9e-3 -0.036 0.018-0.052 0.078-7e-3 0.087 0.047 0.159 0.044 0.012 0.062-0.017 0.094-0.055 0.11 0.018 5e-3 0.028 0.018 0.052 0.018 0.061-0.012 0.1-0.046 0.146-0.074-0.026-0.039-0.083-0.046-0.063-0.137 0.038-4e-3 0.067 3e-3 0.102 2e-3 -0.018-0.016-0.036-0.031-0.025-0.077 0.208-0.021 0.378-3e-3 0.441 0.123 0.523-0.355 1.202-0.095 1.885-0.328 0.146 0.11 0.329 0.18 0.482 0.287-0.095-0.043-0.201-0.059-0.31-0.061 0.08 0.043 0.161 0.086 0.234 0.137-0.395-0.181-0.977 0.068-1.284 0.119-0.335 0.062-0.478-0.08-0.601 0.127-0.041-0.069-0.172-0.047-0.239-0.083-1e-3 0-2e-3 1e-3 -3e-3 1e-3 -0.015 0.039-0.037 0.07-0.079 0.08-0.019 0.049-0.037 0.099-0.118 0.081-0.58 0-0.946 0.18-1.379 0.371 0.15-4e-3 0.312-0.03 0.48-0.069 4e-3 -0.041 0.019-0.071 0.036-0.101 0.076-8e-3 0.088 0.046 0.16 0.041 1e-3 7e-3 -3e-3 9e-3 -2e-3 0.016 0.405-0.098 0.801-0.185 1.021 0.034-0.055 6e-3 -0.11 0.015-0.165 0.022 0.029 0.018 0.063 0.03 0.087 0.055-0.506 0.055-1.034 0.159-1.432 0.295 1.053-0.174 2.127-0.395 3.241-0.634-0.07-0.047-0.242 4e-3 -0.204-0.153 0.037 9e-3 0.062 5e-3 0.091 5e-3 -0.015-0.018-0.025-0.038-0.016-0.079 0.257 0.058 0.29-0.113 0.522-0.082 0.077 0.077 0.011 0.093-0.051 0.118 1e-3 4e-3 7e-3 0.01 7e-3 0.014 0.064-0.023 0.135-0.028 0.19 0.021 2e-3 0.013 0 0.022-2e-3 0.033 0.053 1e-3 0.106-2e-3 0.16-4e-3 -0.04-0.17 0.183-0.206 0.162-0.029-0.048-6e-3 -0.075 0.011-0.104 0.026 0.27-0.018 0.54-0.079 0.717-0.22 0.442 0.084 1.031-0.148 1.566-0.286 0.211-0.054 0.613-0.194 0.76 0.041-0.046 0.013-0.086 0.021-0.132 0.033 0.019 0.016 0.045 0.021 0.058 0.044-0.602 0.159-1.139 0.272-1.659 0.436 0.39 0.099 0.897 0.015 1.164 0.092 0.017-0.032 0.039-0.056 0.073-0.07 0.062-0.137 0.323-0.102 0.417-0.085 0.033 0.087-0.024 0.081-0.073 0.084 0.016 0.057-0.012 0.068-0.049 0.07 2e-3 5e-3 -2e-3 4e-3 0 9e-3 0.406-6e-3 0.548-0.044 0.802-0.163 0.272 0.298 0.666 0.043 1.043 0.081 0.01 0.115-0.029 0.111-0.077 0.099-1e-3 0.048-0.013 0.07-0.034 0.072 0.068 0.051 0.091 0.118-9e-3 0.197-4e-3 -5e-3 -8e-3 -6e-3 -0.012-0.011-6e-3 0.028-0.022 0.057-0.061 0.089-0.298-0.4-0.834-1e-3 -1.258-0.053 0.01 0.079 6e-3 0.174 0.088 0.181 0.077-0.018 0.073-0.118 0.201-0.082-0.015 0.413 0.394 0.451 0.722 0.695 0.268 0.201 0.487 0.406 0.721 0.532 0.08 0 0.05-0.113 0.161-0.081 0.023 0.13-0.076 0.125 0 0.203 0.783 0.217 1.518 0.48 2.211 0.79 4e-3 -0.113 0.026-0.204 0.1-0.242 0.023-0.055 0.06-0.096 0.133-0.099 0.031 0.095-0.037 0.288 0.029 0.345 0.03-0.394 0.156-0.688 0.379-0.882-0.079-0.402-0.252-1.371 0.122-1.636 0 0 1e-3 2e-3 1e-3 3e-3 0.021-0.028 0.041-0.059 0.07-0.079 0.269 0.454-0.092 1.415 0.243 1.8-0.084 0.081-0.138 0.189-0.123 0.368-0.023-1e-3 -0.042 2e-3 -0.062 2e-3 -1e-3 0.026-0.011 0.044-8e-3 0.073-0.048-2e-3 -0.094-2e-3 -0.13 6e-3 0.166 0.091 0.047 0.289 0.08 0.37 0.46-0.432 1.007 0.138 1.46-0.138-0.26-0.076-0.627-0.044-0.769-0.238 0.08 0.022 0.136 0.018 0.181 5e-3 -0.04-0.022-0.083-0.044-0.109-0.08 0.273 0.075 0.288-0.115 0.439-0.165 0.14 0.113 0.447 0.202 0.657 0.206-0.05-0.102-0.08-0.199-0.084-0.292-0.336-0.101-0.653 0.225-0.723-0.083 0.019-0.026 0.053-0.033 0.084-0.045-4e-3 -0.011-0.01-0.017-0.013-0.031 0.116-0.163 0.514-5e-3 0.722 0 1.215-0.21 2.408-0.351 3.649-0.367 0.013 0.098-0.075 0.089-0.042 0.206 0.605 0.252 1.461 0.082 1.963 0.366 0.502-0.037 1.292 0.13 1.727-0.04 0.982 0.21 2.067 0.21 3.084 0.285 0.364 0.028 0.666-0.087 1.004-0.122 0.261-0.027 0.524 0.093 0.8 0.082 0.679-0.025 1.417-0.292 2.085-0.082 1.403-0.176 2.88-0.02 4.169-0.245 0.078 0.018 0.072 0.117 0.201 0.082 0.126 7e-3 0.133-0.109 0.28-0.082 0.149-0.042 0.114 0.101 0.239 0.082 1.676-0.251 3.303-9e-3 5.051-0.082 1.632 0.231 3.512-0.025 4.973 0.367 0.195-0.072 0.344-9e-3 0.559 0 0.116-0.016 0.125-0.143 0.281-0.122 0.155-0.036 0.143 0.1 0.239 0.122 0.914-0.226 2.184-0.095 3.289-0.163 1.228-0.073 2.34 0.038 3.407-0.122 0.959 0.071 2.639-0.018 3.654-0.041 1e-3 -0.055-0.021-0.086 0.049-0.122-4e-3 -0.032-2e-3 -0.055 0.063-0.082 0.049 0.06 0.036 0.184 0.162 0.163 1.111-0.098 2.167 0.08 3.247-0.163 0.016 0.221-0.133 0.271-0.161 0.448 0.038 0.045 0.146 0.013 0.121 0.123-0.038-4e-3 -0.052 0.017-0.068 0.035 7e-3 0.014 0.024 0.015 0.017 0.042-0.031-4e-3 -0.04 0.016-0.056 0.029-4e-3 0.02-0.01 0.038-0.014 0.058 0.115 0.08 0.258 0.096 0.354 8e-3 0.049-0.246-0.115-0.272-0.163-0.424 0.067-0.091 0.102-0.217 0.08-0.409 0.017-6e-3 0.033-0.014 0.048-0.02-1e-3 -0.019 5e-3 -0.033 2e-3 -0.054 0.235-0.086 0.449-0.19 0.588-0.372 0.035-0.061 0.067-0.125 0.084-0.205 8e-3 2e-3 0.012 0 0.018 1e-3 9e-3 -0.028 0.025-0.048 0.032-0.078 0.237 0.052 0.273-0.104 0.44-0.124 0.151 0.229 0.314 6e-3 0.561 0 4e-3 0.077-0.039 0.106-0.067 0.151 0 1e-3 0 2e-3 -1e-3 2e-3 -0.018 0.031-0.03 0.067-0.012 0.135 0.267 0.336 0.686 0.039 0.964-0.082 0.178 0.101 0.34 0.224 0.56 0.286 0.077 0.056 0.073 0.199 0.12 0.286 0.834 0.357 1.679 0.316 2.645 0.612 0.15-0.147 0.474-0.03 0.601 0.082 0.034-0.059 0.102-0.087 0.202-0.082 0.639 0.207 1.629 0.04 2.044 0.37 0.02-0.05 0.043-0.093 0.081-0.124 0.502 0.21 1.218 0.201 1.923 0.206 0.122 0.525 0.419 0.873 0.737 1.199 0.013-8e-3 0.029 7e-3 0.048 0.046-9e-3 -0.031-0.018-0.064-0.023-0.093 0.03-0.131 0.091 0.071 0.146 0.223-0.041-0.04-0.082-0.081-0.121-0.123 0.024 0.054 0.05 0.131 0.076 0.201-6e-3 -6e-3 -0.012-0.013-0.018-0.019 0.179 0.585 0.6 1.385 0.838 1.715-0.316 0.418-0.262 1.104-0.4 1.514 0.115 0.114 0.44 0.016 0.521 0.165-0.037 0.012-0.084 0.013-0.126 0.019 0.033 0.014 0.065 0.029 0.081 0.06-0.253 0.082-0.664 4e-3 -0.853 0.153 0.06 0.065 0.037 0.093-0.01 0.122 0.02 0.044-0.023 0.064-0.071 0.095 0.283-2e-3 0.553 1e-3 0.697 0.04 0.017 0.086-0.013 0.124-0.056 0.15-0.021 0.1-0.126 0.114-0.228 0.131 0.079 2e-3 0.189-0.025 0.165 0.086-0.013 0.017-0.041 0.017-0.059 0.028 9e-3 0.013 0.02 0.024 0.013 0.052-0.132 0.174-0.58 0.026-0.746 0.169 0.077 0.307 0.045 0.345-4e-3 0.39-0.011 0.047-0.036 0.068-0.063 0.097-0.023 0.065-0.037 0.171-0.023 0.378 0.159-0.066 0.332 0.682 0.341 1.069 0.077 0.224 0.13 0.443 0.101 0.599-0.02 0.011-0.036-0.015-0.052-0.052 2e-3 0.044 0.013 0.095 6e-3 0.134-0.041 0.021-0.071-0.083-0.096-0.228 9e-3 0.12 0.017 0.212 0.022 0.227-0.024-0.011-0.045-0.059-0.065-0.121 8e-3 0.108 0.015 0.188 0.019 0.201-0.072-0.032-0.13-0.379-0.174-0.622-0.018 0.433-0.187 0.955 0.139 1.288-9e-3 0.052-0.028 0.078-0.051 0.091-0.03 0.127-0.123 0.089-0.186 0.071 0.099 0.997 0.068 2.065 0.076 3.234-0.014 1e-3 -0.031-1e-3 -0.046-1e-3v0.084c-0.132 0.011-0.295-0.014-0.395 0.03 0.017 0.915-0.03 1.55 0.041 2.423 0.045 0.074 0.105 0.138 0.161 0.203-0.256 0.902-0.206 1.792-0.283 2.741 0.1-6e-3 0.195-8e-3 0.202 0.083-0.013 0.028-0.051 0.029-0.087 0.033 0.018 0.013 0.04 0.021 0.043 0.05-0.02 0.044-0.085 0.039-0.124 0.059-0.165 0.919 0.305 1.65 0.046 2.392 0.026 0.113 0.169 0.102 0.162 0.246-0.163 0.741 0.211 1.332-0.081 2.004 0.718 0.526 0.15 1.828 0.441 2.74-7e-3 0.032-0.026 0.052-0.049 0.068 2e-3 6e-3 2e-3 0.013 4e-3 0.02-0.019 0.075-0.094 0.091-0.148 0.13-2e-3 0.011-7e-3 0.016-6e-3 0.029 0.125 0.13 0.229 0.282 0.319 0.449-6e-3 0.035-0.042 0.041-0.079 0.044 0.01 0.018 0.023 0.03 0.033 0.048-0.01 0.057-0.091 0.041-0.147 0.053 0.036 0.243 0.229 0.125 0.274 0.346-0.027 4e-3 -0.062 0-0.094-1e-3 0.019 0.022 0.039 0.046 0.048 0.092-0.03 3e-3 -0.072-4e-3 -0.106-3e-3 0.074 0.096 0.264 0.074 0.233 0.28-0.015 6e-3 -0.034 6e-3 -0.056 4e-3 8e-3 0.024 0.016 0.048 0.01 0.085-0.035 0.015-0.101-3e-3 -0.148-2e-3 0.028 0.338 0.218 0.688 0.153 1.223 0.351 0 0.309 0.458 0.171 0.7-0.019 0.046-0.038 0.088-0.062 0.124 0.146 0.029 0.257 0.094 0.212 0.319-0.018 3e-3 -0.028-2e-3 -0.041-6e-3 1e-3 0.031 5e-3 0.058-3e-3 0.097-0.103 0.016-0.104-0.074-0.183-0.084 0.039 0.239-0.049 0.543 0.227 0.691 0.033 0.115-0.056 0.104-0.04 0.203-8e-3 4e-3 -0.013-2e-3 -0.019 0-0.016 0.022-0.032 0.043-0.024 0.088-0.025 0.013-0.042 6e-3 -0.06 0 0.047 0.039 0.09 0.083 0.103 0.158-0.031 0.022-0.033 0.055-0.048 0.083 1e-3 3e-3 4e-3 4e-3 5e-3 7e-3 -0.028 0.02-0.029 0.05-0.042 0.074-0.011 0.179 0.131 0.43 0.085 0.695-0.018 8e-3 -0.028 0.022-0.044 0.031-2e-3 0.021 5e-3 0.04 1e-3 0.061-0.118 0.053-0.199 0.143-0.26 0.25-0.153 0.39-0.044 0.98 0.102 1.376 0.182 0.022 0.281-0.039 0.357-0.124-8e-3 -0.071 1e-3 -0.127 0.028-0.167-0.045-0.08-0.057-0.178 1e-3 -0.292h0.132c-4e-3 -9e-3 2e-3 -0.012-3e-3 -0.021 0.029 1e-3 0.043 0.016 0.067 0.02 6e-3 -0.03 4e-3 -0.064-0.021-0.111 0.428 0.013 0.455 0.434 0.643 0.695 0.719-0.338 1.635 0.347 2.314 0.144-0.056-0.04-0.078-0.114-0.115-0.175h0.162c-0.033 0.13 0.061 0.127 0.082 0.203h-2e-3c0.06 0.072 0.103 0.163 0.164 0.236 0.489-0.109 0.863 0.121 1.361 0.123 8e-3 0.061-0.027 0.08-0.07 0.09 0.01 0 0.018 3e-3 0.027 3e-3 9e-3 0.071-0.036 0.087-0.089 0.096 0.333 0.089 0.845-0.023 1.014 0.301-0.028 0.017-0.067 0.026-0.093 0.046 0.014 0.019 0.041 0.023 0.053 0.046-0.023 0.013-0.048 0.023-0.072 0.035 0 0.014-0.014 0.016-8e-3 0.036 0.081 0.083 0.325-2e-3 0.362 0.124-0.064 2e-3 -0.088 0.015-0.098 0.035 0.027 0.012 0.047 0.028 0.056 0.057-0.026 1e-3 -0.04 5e-3 -0.055 9e-3 5e-3 0.019 0.011 0.04 0.016 0.064-0.021 3e-3 -0.042 5e-3 -0.062 7e-3 5e-3 0.024 0.012 0.052 0.019 0.086-0.103 0.014-0.208 0.028-0.3 0.055 0.301 0.081 0.617 0.087 0.824 0.343 0.054 0.409 0.189 0.77 0.201 1.184-0.017 9e-3 -0.035 0.015-0.052 0.022 1e-3 0.025 8e-3 0.046 0.01 0.071-0.122 0.062-0.275 0.094-0.356 0.199 0.059 0.374 0.52 0.336 0.958 0.323v1e-3c-6e-3 0.042-0.036 0.065-0.061 0.092h0.021c-0.039 0.273-0.482 0.219-0.733 0.17-7e-3 0.116 0.028 0.138-0.069 0.351 0.243 0.062 0.118 0.122 0.162 0.285 0.252 0.013 0.474-6e-3 0.68-0.04" inkscape:connector-curvature="0"/></g><g transform="translate(633.2 202.9)"><path d="m0 0c8e-3 0.122-0.145 0.146-0.203 0.083 0-0.057 0.021-0.09 0.042-0.123 0.076-9e-3 0.089 0.047 0.161 0.04" inkscape:connector-curvature="0"/></g><g transform="translate(633.1 202.6)"><path d="m0 0h-0.24v-0.082c0.083 0.024 0.277-0.066 0.24 0.082" inkscape:connector-curvature="0"/></g><g transform="translate(632.8 203.1)"><path d="m0 0c-0.145 0.029-0.303 0.071-0.44 0-0.039-0.186 0.481-0.186 0.44 0" inkscape:connector-curvature="0"/></g><g transform="translate(632 203)"><path d="m0 0h0.159c0.033 0.156-0.19 0.156-0.159 0" inkscape:connector-curvature="0"/></g><g transform="translate(631.9 203.1)"><path d="m0 0c-0.169-0.046-0.522 0.095-0.56-0.082 0.168 0.045 0.519-0.096 0.56 0.082" inkscape:connector-curvature="0"/></g><g transform="translate(630.5 168.2)"><path d="m0 0c0.163 0.038 0.162-6e-3 0.361 0 0.026 0.293-0.23 0.054-0.361 0.163z" inkscape:connector-curvature="0"/></g><g transform="translate(630.8 192.3)"><path d="m0 0c-0.079-0.095-0.093-0.259-0.081-0.449 0.095 0.043 0.248 0.407 0.081 0.449" inkscape:connector-curvature="0"/></g><g transform="translate(630.5 203.1)"><path d="m0 0c-8e-3 0.152-0.142 0.114-0.241 0.082-0.039-0.148 0.158-0.057 0.241-0.082" inkscape:connector-curvature="0"/></g><g transform="translate(618.3 204.6)"><path d="M 0,0 C 0.051,0.135 -0.27,0.1 -0.281,0.04 -0.228,-0.016 -0.106,0 0,0" inkscape:connector-curvature="0"/></g><g transform="translate(613.8 233.1)"><path d="m0 0c-0.071 4e-3 -0.124-8e-3 -0.161-0.04-2e-3 -0.054 0.02-0.088 0.041-0.122 0.106-0.013 0.132 0.056 0.12 0.162" inkscape:connector-curvature="0"/></g><g transform="translate(613.2 232.7)"><path d="m0 0c-0.095-0.162-0.124-0.315-0.079-0.532 0.187 0.108 0.275 0.421 0.079 0.532" inkscape:connector-curvature="0"/></g><g transform="translate(612.4 236.8)"><path d="m0 0c-0.114-0.212-0.324-0.324-0.402-0.573 0.216-0.096 0.559 0.428 0.402 0.573" inkscape:connector-curvature="0"/></g><g transform="translate(612.1 233.3)"><path d="m0 0c0.013 0.15-6e-3 0.268-0.038 0.37 0.149 0.076 0.23 0.227 0.2 0.49h-0.2c-0.195-0.308-0.048-0.503-0.203-0.778 0.162 0.098 0.098-0.064 0.241-0.082" inkscape:connector-curvature="0"/></g><g transform="translate(611.6 237.2)"><path d="m0 0c-0.104-0.221-0.33-0.317-0.4-0.573 0.221-0.102 0.538 0.446 0.4 0.573" inkscape:connector-curvature="0"/></g><g transform="translate(611.5 230.9)"><path d="m0 0h-0.161c-0.031-0.157 0.192-0.157 0.161 0" inkscape:connector-curvature="0"/></g><g transform="translate(611 233.6)"><path d="M 0,0 C 0.211,0.013 -0.018,0.217 0.201,0.206 0.207,0.308 0.207,0.404 0.12,0.41 0.075,0.279 0.052,0.125 0,0" inkscape:connector-curvature="0"/></g><g transform="translate(611 236.6)"><path d="m0 0c-5e-3 -0.269-0.283-0.256-0.32-0.491 0.049-0.018 0.083-0.053 0.079-0.122 0.167 0.04 0.26-0.026 0.361 0.122-0.064 0.123-0.017 0.312 0.041 0.491z" inkscape:connector-curvature="0"/></g><g transform="translate(610.7 233.6)"><path d="m0 0c0.018 0.155-0.017 0.254-0.12 0.286-0.065-0.098-0.133-0.194-0.12-0.368 0.065-0.097 0.233-0.089 0.4-0.083 0.017 0.145 0.135 0.189 0.16 0.328-0.08 0-0.05 0.111-0.16 0.082 0.027-0.163-0.022-0.251-0.16-0.245" inkscape:connector-curvature="0"/></g><g transform="translate(610.4 230.3)"><path d="M 0,0 C 0.13,-0.011 0.192,0.047 0.2,0.163 0.107,0.252 -0.026,0.152 0,0" inkscape:connector-curvature="0"/></g><g transform="translate(611.8 244.4)"><path d="m0 0c-0.116 9e-3 -0.219 6e-3 -0.201-0.123 0.102 5e-3 0.205 9e-3 0.201 0.123" inkscape:connector-curvature="0"/></g><g transform="translate(610 210.8)"><path d="m0 0c9e-3 0.392-0.024 0.61 0 0.941-0.051 2e-3 -0.055 0.051-0.12 0.041 0.047-0.227-0.099-0.767 0.12-0.982" inkscape:connector-curvature="0"/></g><g transform="translate(610 210.3)"><path d="M 0,0 C -0.068,-0.069 0.023,-0.183 0.081,-0.244 0.057,-0.161 0.146,0.039 0,0" inkscape:connector-curvature="0"/></g><g transform="translate(609.4 239.5)"><path d="m0 0c0.071 0.024 0.087 0.33-0.081 0.245-0.07-0.022-0.088-0.33 0.081-0.245" inkscape:connector-curvature="0"/></g><g transform="translate(609.2 240.1)"><path d="m0 0h-0.12c3e-3 -0.11-0.066-0.083 0-0.162 0.107-0.013 0.132 0.055 0.12 0.162" inkscape:connector-curvature="0"/></g><g transform="translate(608.5 240.9)"><path d="m0 0c0.036-0.175-0.265-4e-3 -0.241-0.164 0.114-0.156 0.472 0.102 0.241 0.164" inkscape:connector-curvature="0"/></g><g transform="translate(608.1 241.7)"><path d="m0 0c0.013 0.056 0.055 0.079 0.041 0.163h-0.16c-8e-3 -0.1 0.059-0.126 0.119-0.163" inkscape:connector-curvature="0"/></g><g transform="translate(609.4 245)"><path d="m0 0c-0.116 8e-3 -0.22 6e-3 -0.201-0.121 0.102 3e-3 0.205 6e-3 0.201 0.121" inkscape:connector-curvature="0"/></g><g transform="translate(607.9 242.1)"><path d="M 0,0 C -0.079,0.018 -0.034,0.16 -0.162,0.123 -0.211,0 -0.028,-0.089 0,0" inkscape:connector-curvature="0"/></g><g transform="translate(607.7 242.3)"><path d="M 0,0 C -0.041,0.111 -0.066,0.233 -0.201,0.247 -0.175,0.123 -0.138,0.011 0,0" inkscape:connector-curvature="0"/></g><g transform="translate(606.9 242.9)"><path d="m0 0h0.281c0.076 0.23-0.36 0.23-0.281 0" inkscape:connector-curvature="0"/></g><g transform="translate(605.3 244.4)"><path d="m0 0c-0.118 0.042-0.116 0.208-0.32 0.163-0.032-0.046-0.052-0.108-0.04-0.203 0.106-0.044 0.307-0.078 0.36 0.04" inkscape:connector-curvature="0"/></g><g transform="translate(602.3 245.8)"><path d="m0 0c-0.051 0.057-0.191 0.057-0.241 0v-0.122c0.121-2e-3 0.263-0.024 0.241 0.122" inkscape:connector-curvature="0"/></g><g transform="translate(602 245.7)"><path d="m0 0c-0.084 0.082-0.268 0.032-0.36 0-0.022-0.146 0.372-0.107 0.36 0" inkscape:connector-curvature="0"/></g><g transform="translate(601.2 245.6)"><path d="m0 0h0.161c0.031 0.158-0.192 0.158-0.161 0" inkscape:connector-curvature="0"/></g><g transform="translate(591.5 246)"><path d="m0 0c-0.091 0.011-0.15-0.012-0.159-0.084 0.055-0.012 0.076-0.057 0.159-0.04z" inkscape:connector-curvature="0"/></g><g transform="translate(588.7 245.6)"><path d="M 0,0 C -0.159,0.007 -0.63,0.576 -0.681,0.291 -0.432,0.31 -0.112,-0.157 0,0" inkscape:connector-curvature="0"/></g><g transform="translate(584.2 246.2)"><path d="m0 0c-8e-3 -0.118 0.012-0.208 0.082-0.245 0.062 0.061 0.071 0.28-0.082 0.245" inkscape:connector-curvature="0"/></g><g transform="translate(584 246.3)"><path d="m0 0c0.108 0.13-0.025 0.265-0.159 0.163-8e-3 -0.115 0.112-0.1 0.159-0.163" inkscape:connector-curvature="0"/></g><g transform="translate(574.3 159.4)"><path d="m0 0c-6e-3 -0.101-8e-3 -0.2 0.081-0.205 0.054 0.066 0.142 0.101 0.12 0.245-0.095 0.013-0.155-7e-3 -0.201-0.04" inkscape:connector-curvature="0"/></g><g transform="translate(558.1 246.2)"><path d="m0 0c-0.077 0.099-0.199 0.095-0.24-0.04 0.053-0.055 0.24-0.072 0.24 0.04" inkscape:connector-curvature="0"/></g><g transform="translate(557.7 159.2)"><path d="m0 0c0.035-0.262-0.015-0.757 0.157-0.997 7e-3 -0.279 0.034-0.572 0.22-0.677-0.149 0.377-0.033 0.868-0.22 1.074-0.016 0.253-0.023 0.488-0.157 0.6" inkscape:connector-curvature="0"/></g><g transform="translate(557.2 162.8)"><path d="m0 0c-0.063-0.06-0.029-0.167 0.04-0.204 0.033 0.028 0.106 0.242-0.04 0.204" inkscape:connector-curvature="0"/></g><g transform="translate(557.1 171)"><path d="m0 0c-0.147-0.111-0.062-0.395 0-0.531-0.029-0.089 0.039-0.261 0.039-0.082 0.019 0.187 0.062 0.347 0.041 0.572-8e-3 0.032-0.033 0.048-0.08 0.041" inkscape:connector-curvature="0"/></g><g transform="translate(557.1 173.2)"><path d="m0 0c2e-3 -0.056-0.02-0.089-0.039-0.123 0.053-0.013 0.076-0.057 0.159-0.04 0.011 0.107-0.016 0.175-0.12 0.163" inkscape:connector-curvature="0"/></g><g transform="translate(556.9 166.3)"><path d="m0 0v-0.245c0.167-0.044 0.167 0.289 0 0.245" inkscape:connector-curvature="0"/></g><g transform="translate(542.8 246.6)"><path d="m0 0c-0.035-0.072-0.148-0.067-0.159-0.163 0.047-0.049 0.14-0.049 0.24-0.043 6e-3 0.104 8e-3 0.199-0.081 0.206" inkscape:connector-curvature="0"/></g><g transform="translate(537.6 246.2)"><path d="m0 0c0.014 0.057 0.059 0.079 0.043 0.163-0.071 4e-3 -0.126-7e-3 -0.161-0.04-0.029-0.108 0.081-0.079 0.118-0.123" inkscape:connector-curvature="0"/></g><g transform="translate(536.9 246.4)"><path d="m0 0c0.095 0.077 0.07 0.282 0.321 0.203v0.205c-0.234 0.034-0.131-0.277-0.402-0.205-6e-3 -0.101-6e-3 -0.198 0.081-0.203" inkscape:connector-curvature="0"/></g><g transform="translate(536.9 246.3)"><path d="m0 0c-8e-3 -0.106 0.056-0.134 0.163-0.123 0.01 0.108-0.015 0.176-0.12 0.163-4e-3 -0.024-8e-3 -0.048-0.043-0.04" inkscape:connector-curvature="0"/></g><g transform="translate(536.5 246.1)"><path d="m0 0c0.218-0.06 0.194 0.25 0 0.204z" inkscape:connector-curvature="0"/></g><g transform="translate(536.5 246.5)"><path d="m0 0c0.203-5e-3 0.193 0.212 0.281 0.328-0.065 0.127-0.293 0.264-0.321 0 0.194-0.104 8e-3 -0.093 0.04-0.328" inkscape:connector-curvature="0"/></g><g transform="translate(536.4 246.5)"><path d="m0 0v0.204h-0.12c-0.034-0.104-0.052-0.22 0.12-0.204" inkscape:connector-curvature="0"/></g><g transform="translate(450.6 246.1)"><path d="M 0,0 C 0.127,0.021 0.14,-0.072 0.28,-0.04 0.302,0.102 0.012,0.134 0,0" inkscape:connector-curvature="0"/></g><g transform="translate(450.4 246.4)"><path d="m0 0v-0.164h0.12c0.013 0.107-0.013 0.177-0.12 0.164" inkscape:connector-curvature="0"/></g><g transform="translate(446 244.7)"><path d="m0 0c0.054 0.124 0.054 0.327 0 0.451-0.295 0.18-0.455-0.194-0.319-0.451 0.111-0.046 0.207-0.046 0.319 0" inkscape:connector-curvature="0"/></g><g transform="translate(444.8 220)"><path d="m0 0c0.035 0.131-0.063 0.128-0.12 0.165-0.012-0.058-0.066-0.069-0.081-0.124 0.046-0.034 0.108-0.053 0.201-0.041" inkscape:connector-curvature="0"/></g><g transform="translate(444.8 220.6)"><path d="m0 0c6e-3 0.1 6e-3 0.197-0.039 0.245-0.077 9e-3 -0.089-0.046-0.159-0.04v-0.205c0.121-0.028 0.076-0.028 0.198 0" inkscape:connector-curvature="0"/></g><g transform="translate(443.7 240.3)"><path d="m0 0c0-0.08-0.11-0.051-0.08-0.163 0.057-9e-3 0.067-0.065 0.12-0.081 0.057 0.053 0.07 0.244-0.04 0.244" inkscape:connector-curvature="0"/></g><g transform="translate(440.1 204.7)"><path d="m0 0c-0.016 0.091-1.031 0.039-1.012-0.041 0.028-0.032 1.05-0.107 1.012 0.041" inkscape:connector-curvature="0"/></g><g transform="translate(424.6 161.9)"><path d="m0 0c0.027-0.152-0.07-0.177-0.041-0.328 0.233-0.06 0.207 0.142 0.201 0.328z" inkscape:connector-curvature="0"/></g><g transform="translate(619.9 230.9)"><path d="m0 0c0.104-3e-3 0.049 0 0 0" inkscape:connector-curvature="0"/></g><g transform="translate(629.9 163.7)"><path d="M 0,0 C 0.032,0.033 0.063,0.066 0.096,0.098 0.078,0.201 0.041,0.116 0,0" inkscape:connector-curvature="0"/></g><g transform="translate(631 167.6)"><path d="m0 0c0.025 0.291-0.229 0.054-0.361 0.161v-0.161c0.16 0.038 0.16-7e-3 0.361 0" inkscape:connector-curvature="0"/></g><g transform="translate(630.6 194.6)"><path d="m0 0h0.161c0.028 0.202 0.123 0.338 0.2 0.492-0.249-0.013-0.505-0.21-0.361-0.492" inkscape:connector-curvature="0"/></g><g transform="translate(629.7 173.4)"><path d="M 0,0 C 0.024,0.096 0.061,0.191 -0.08,0.206 -0.086,0.104 -0.086,0.005 0,0" inkscape:connector-curvature="0"/></g><g transform="translate(580.5 161.4)"><path d="m0 0c-0.088-0.231 0.403-0.231 0.36-0.04-0.04 0.091-0.251 0.014-0.36 0.04" inkscape:connector-curvature="0"/></g><g transform="translate(579.6 161.4)"><path d="m0 0c-0.279-0.112-0.653 0.018-0.923-0.162 0.31-0.102 0.802-0.058 0.923 0.162" inkscape:connector-curvature="0"/></g><g transform="translate(578.1 161.1)"><path d="m0 0h0.201v0.158c-0.094 0.015-0.153-6e-3 -0.201-0.039z" inkscape:connector-curvature="0"/></g><g transform="translate(577.9 161.1)"><path d="m0 0v0.119c-0.071 4e-3 -0.123-7e-3 -0.161-0.039-0.04-0.124 0.089-0.073 0.161-0.08" inkscape:connector-curvature="0"/></g><g transform="translate(574.5 158.7)"><path d="M 0,0 C 0.055,0.065 0.145,0.101 0.121,0.246 0.028,0.26 -0.034,0.239 -0.08,0.207 -0.087,0.105 -0.089,0.004 0,0" inkscape:connector-curvature="0"/></g><g transform="translate(570.8 161.9)"><path d="M 0,0 C 0.079,0.022 0.276,-0.068 0.24,0.083 0.208,0.163 -0.019,0.105 0,0" inkscape:connector-curvature="0"/></g><g transform="translate(564.2 159)"><path d="m0 0c-0.076-0.011-0.091 0.047-0.158 0.04-0.058-0.181 0.182-0.221 0.158-0.04" inkscape:connector-curvature="0"/></g><g transform="translate(563.5 159.1)"><path d="m0 0c0.027-0.105 0.215-0.177 0.32-0.08 0.036 0.17-0.285 0.236-0.32 0.08" inkscape:connector-curvature="0"/></g><g transform="translate(562.9 159.7)"><path d="m0 0c-0.188 0.079-0.428 0.116-0.643 0.083 0.051-0.094 0.554-0.199 0.643-0.083" inkscape:connector-curvature="0"/></g><g transform="translate(561.7 160)"><path d="m0 0h-0.238c-0.037-0.177 0.258-0.141 0.238 0" inkscape:connector-curvature="0"/></g><g transform="translate(559.7 158.5)"><path d="M 0,0 H -0.199 C -0.224,-0.148 -0.083,-0.123 0.041,-0.123 0,0.04 0.162,0 0.123,0.167 0.068,0.177 0.044,0.224 -0.038,0.207 -0.138,0.113 0.02,0.13 0,0" inkscape:connector-curvature="0"/></g><g transform="translate(558.2 160)"><path d="m0 0c0.015-0.137 0.05-0.25 0.203-0.246 0.022 0.174-0.015 0.29-0.203 0.246" inkscape:connector-curvature="0"/></g><g transform="translate(557.4 161.4)"><path d="m0 0c-0.019 0.284-0.043 0.549-0.129 0.699-0.02-0.356-0.088-1.11 0.121-1.486 0.024-0.305 0.091-0.589 0.26-0.72-0.149 0.485-0.062 1.318-0.243 1.639-2e-3 -0.038-6e-3 -0.085-9e-3 -0.132" inkscape:connector-curvature="0"/></g><g transform="translate(557.4 162.2)"><path d="m0 0c-0.063-0.061-0.027-0.17 0.041-0.206 0.033 0.029 0.108 0.242-0.041 0.206" inkscape:connector-curvature="0"/></g><g transform="translate(557.3 169.8)"><path d="m0 0c0.02 0.188 0.061 0.347 0.039 0.571-7e-3 0.035-0.03 0.051-0.077 0.042-0.148-0.111-0.064-0.394 0-0.532-0.033-0.088 0.038-0.26 0.038-0.081" inkscape:connector-curvature="0"/></g><g transform="translate(557.2 172.7)"><path d="m0 0c2e-3 -0.058-0.018-0.089-0.039-0.124 0.054-0.012 0.078-0.057 0.161-0.039 9e-3 0.105-0.017 0.175-0.122 0.163" inkscape:connector-curvature="0"/></g><g transform="translate(557 178.1)"><path d="m0 0c0.099 0.683-0.083 1.394 0 0" inkscape:connector-curvature="0"/></g><g transform="translate(557 165.7)"><path d="m0 0v-0.246c0.164-0.043 0.164 0.289 0 0.246" inkscape:connector-curvature="0"/></g><g transform="translate(557 175.9)"><path d="M 0,0 C 0.005,0.599 0.156,1.505 0.041,1.843 -0.205,1.482 -0.062,0.431 0,0" inkscape:connector-curvature="0"/></g><g transform="translate(548.4 178.8)"><path d="m0 0c2e-3 -0.056-0.021-0.089-0.04-0.124 0.046-0.033 0.107-0.053 0.199-0.038 0.02 0.126-0.101 0.114-0.159 0.162" inkscape:connector-curvature="0"/></g><g transform="translate(547.9 178.8)"><path d="m0 0c2e-3 -0.148 0.118-0.179 0.283-0.164 0 0.057 0.018 0.092 0.043 0.124-0.075 0.09-0.208 0.094-0.326 0.04" inkscape:connector-curvature="0"/></g><g transform="translate(546.5 179)"><path d="M 0,0 C 0.201,0.058 0.496,-0.031 0.643,0.163 0.373,0.076 0.038,0.279 0,0" inkscape:connector-curvature="0"/></g><g transform="translate(545.9 179.1)"><path d="m0 0c-0.096 2e-3 -0.118-0.068-0.241-0.042-0.02-0.202 0.257-0.104 0.241 0.042" inkscape:connector-curvature="0"/></g><g transform="translate(544.4 167.4)"><path d="m0 0c-0.055-0.056-0.075-0.286 0.04-0.286 0.054 0.055 0.078 0.285-0.04 0.286" inkscape:connector-curvature="0"/></g><g transform="translate(544.4 177)"><path d="m0 0c-0.025 0.146 0.05 0.201 0.082 0.288-0.073 0.036-0.117 0.128-0.202 0.041-0.029-0.112 0.081-0.083 0.081-0.165-0.051-0.059-0.197-0.018-0.201-0.125 0.047-0.044 0.142-0.044 0.24-0.039" inkscape:connector-curvature="0"/></g><g transform="translate(618.5 204)"><path d="M 0,0 C 0.051,0.133 -0.269,0.101 -0.28,0.039 -0.227,-0.016 -0.106,0 0,0" inkscape:connector-curvature="0"/></g></g></g><g transform="translate(603.9 216.6)"><path d="m0 0c0.254 0.355-0.333 0.551-0.146 0.822 0.323-0.047 0.27-0.476 0.662-0.45-0.034-0.254-0.333-0.502-0.516-0.372m-0.365 11.8c0.324 0.092 0.465-0.189 0.292-0.373-0.205 0.012-0.309 0.128-0.292 0.373m-0.366 2.09c0.14 0.409 0.503 0.586 0.806 0.822 0.328-0.28-0.486-0.945-0.806-0.822m-0.585-7.021c0.127-0.023 0.365 0.212 0.438 0 0.107-0.233-0.541-0.233-0.438 0m-0.295 1.119c0.208-0.013 0.314-0.13 0.295-0.373h-0.367c-0.024 0.175 0.012 0.287 0.072 0.373m0.512 13.3c0.024-0.197-0.099-0.242-0.291-0.224 6e-3 0.202 0.167 0.361 0.291 0.224m-2.634-25.7c-1.296-0.159-2.974 0.03-4.612-0.15-0.073 1.746 0.072 3.456 0.072 5.155 0 1.972-0.392 3.764-0.293 5.677 0.233 4.438-0.102 8.862-0.145 13.38 1.721 0.145 3.913 0.241 4.76-0.523-0.085-0.243-0.392 0.204-0.292-0.226 0.309-4.119-0.014-8.469 0-12.63 2e-3 -0.985-0.139-1.921-0.073-2.84 0.075-1.097 0.416-2.118 0.511-3.211 0.041-0.459-0.052-0.903 0-1.343 0.037-0.323 0.122-0.843 0.438-1.048-0.442-0.523-0.281-1.522-0.366-2.24m-4.246-2.766h0.364c0.066-0.308-0.364-0.227-0.364 0m-1.245 32.13c0.173 0.199 0.221 0.523 0.588 0.523-0.041-0.312-0.44-0.56-0.588-0.523m0.221-28.24c-0.234-0.062-0.227 0.119-0.366 0.15 0.013 0.21 0.128 0.318 0.366 0.297-0.038-0.231 0.158-0.291 0-0.447m-0.878-2.838c-0.406 0.023-0.678 0.188-0.955 0.151-0.051 0.225 0.128 0.217 0.073 0.448 0.5-0.101 0.673 0.28 0.954 0 0.056-0.284-0.09-0.359-0.072-0.599m3.146 30.56c-0.045-0.316-0.162-0.275-0.439-0.225v0.225c0.17 0.021 0.302 0.146 0.439 0m-0.221 1.642c0.634 1.097 0.807-0.472-0.29-0.075-0.023 0.305 0.151 0.04 0.29 0.075m-6.369-15.76c0.282 0.193 0.705 0 0.66-0.375-0.36-0.019-0.62 0.067-0.66 0.375m0.073-12.1c-0.213 0.131 0.014 0.43 0.221 0.374 0.033-0.234-0.197-0.196-0.221-0.374m-0.292 26.45v0.298h0.219c0.022-0.195-0.027-0.32-0.219-0.298m-0.512-33.25c0.086 0.063 0.196 0.101 0.365 0.075 0.107-0.235-0.419-0.357-0.365-0.075m16.98 24.66c-0.11 1.167-0.167 2.909-0.217 4.255-0.021 0.497 0.087 0.89 0 1.196-0.188 0.635-1.072 1.276-1.465 1.944-0.509 0.859-1.076 2.554-1.759 2.837-0.603 0.255-2.247 0.171-3.146 0.226-2.99 0.175-5.869 0.262-8.787 0.371-2.088 0.078-4.526 0.451-6.004 0.298-0.137-0.599-0.032-1.295 0.292-1.642-0.54-0.96-0.113-2.248-0.146-3.285-0.026-0.814-0.244-1.565-0.366-2.243 0.779-0.712 2.336-0.214 3.515-0.449 0.265-4.258 0.338-8.739 0.147-13.22-0.156-3.574 0.228-7.089-0.219-10.38-0.945-0.04-1.946-0.06-3.005-0.15-0.031-2.48 0.217-4.71 0.439-7.097 5.457 0.109 11.49 0.387 16.91 0.3 0.856 0.704 1.369 1.947 2.125 2.837 0.531 0.627 1.549 1.141 1.682 1.943 0.138 0.822-0.153 1.747-0.217 2.615-0.115 1.6 0.121 3.27 0 4.931-0.017 0.227-0.48-0.243-0.44 0.15-0.162 0.474 0.39 0.862 0.513 1.194 0.148 0.415-7e-3 0.738 0 1.344 0.014 2.082-0.04 5.339 0.144 8.444 0.07 1.176 0.105 2.498 0 3.588" style="fill:#fff" inkscape:connector-curvature="0"/></g><g transform="translate(579.3 227.3)"><path d="m0 0c-0.363 0.23-0.353-0.239-0.57-0.366-0.13 0.235 0.169 0.42 0 0.801 0.277-0.162 0.329 0.086 0.64 0.074-0.075-0.225 0.12-0.23-0.07-0.509m-0.499-11.72c-0.01-0.177-0.238-0.02-0.284 0 0.184 0.132 0.11 0.52 0.428 0.511 0.051-0.225-0.399-0.313-0.144-0.511m-1.566 11.64c0.252 0.041 0.31-0.114 0.426-0.217-0.075-0.136-0.52-0.05-0.426 0.217m-4.85-7.71c0.309 2.207 0.892 4.524 1.07 6.621 0.536 0.605 0.386 1.529 0.64 2.475 0.791-2.986 1.336-6.325 2.068-9.168-1.364-0.121-2.49-0.107-3.778 0.072m-0.925-5.602c0.059 0.233-0.065 0.275-0.146 0.364 0.061 0.394 0.439 0.532 0.216 1.019 0.344-0.062 0.244 0.332 0.357 0.508 0.338-0.095 0.388-0.163 0.712 0 0.116-0.852-0.409-1.661-1.139-1.891m-0.432 16.37h0.286c0.041-0.199 0.077-0.408 0.358-0.364-0.073-0.097-0.071-0.269-0.142-0.364-0.391 0.017-0.469 0.348-0.502 0.728m0.644 0.727c0.177 0.021 0.238 0.274 0.427 0.075 0.011-0.133-0.088-0.154-0.072-0.291-0.202-0.017-0.386-0.011-0.355 0.216m0.569-0.946c-0.11-4e-3 -0.272 0.037-0.284-0.072-0.169 0.019-0.042 0.321 0 0.365h0.284zm0.215-3.784c-0.086-0.325-0.331-0.483-0.569-0.653-0.147 0.121-0.286 0.241-0.286 0.509 0.224 0.136 0.538 0.317 0.855 0.144m-1.641 3.131c-0.525 0.109 0.052-0.521-0.498-0.437-3e-3 0.463 0.248 0.671 0.57 0.8 0.027-0.176-0.128-0.158-0.072-0.363m-5.847-19.5c-0.08 0.232 0.113 0.18 0.141 0.292 0.1-0.02 0.06-0.181 0.073-0.292zm16.4 12.95c-0.738 4.911-1.976 9.623-2.919 14.33-0.642 0.58-0.622 1.555-0.786 2.549-0.172 1.02-0.674 1.99-0.783 2.908-2.521 0.349-5.072-0.305-7.275-0.217-0.514-1.376-0.242-2.896-0.641-4.294-0.141-0.491-0.505-0.839-0.57-1.381-0.055-0.432 0.074-0.924 0-1.382-0.071-0.436-0.39-0.828-0.5-1.238-0.355-1.319-0.669-2.989-0.925-4.51-0.197-1.162-0.492-2.406-0.5-3.493-0.034-2.925-0.632-5.503-0.928-8.368-0.099-0.957-0.568-2.434-0.43-3.346 0.019-0.11 0.222-0.288 0.216-0.363 0-0.011-0.274-0.335-0.286-0.365-0.063-0.175-0.124-0.472-0.143-0.581-0.374-2.388-0.388-4.927-0.926-7.202 1.951 0.025 3.922-0.049 5.777 0.146 0.604 2.045 0.514 4.364 1.281 6.257 1.916 0.429 4.009 0.066 6.207 0.363 0.725-1.236 0.637-3.111 0.995-4.367 0.272-0.942 0.512-1.733 0.856-2.473 1.668 0.253 3.312 0 4.991 0.146-0.555 4.882-1.52 9.584-2.139 14.33-0.115 0.87-0.44 1.691-0.572 2.548" style="fill:#fff" inkscape:connector-curvature="0"/></g><g transform="translate(560 210.3)"><path d="m0 0c-0.245 0-0.283 0.212-0.294 0.451 0.167 0.02 0.281-0.013 0.368-0.076 0.021-0.174-0.014-0.287-0.074-0.375m-2.507-3.159c0.194 0.022 0.318-0.028 0.295-0.226-0.193-0.022-0.37-0.025-0.295 0.226m-7.955 16.46c-0.012 0.247 0.299 0.359 0.44 0.224-0.022-0.28-0.246-0.306-0.44-0.224m-1.623 2.553c-0.236 0.066-0.23-0.114-0.295-0.224-0.081 0.019-0.05 0.15-0.147 0.15 0.097 0.153 0.241 0.258 0.442 0.301zm-2.355-18.12c-0.081 0.021-0.051 0.15-0.149 0.15 0.131 0.194 0.362 0.332 0.589 0.225-0.074-0.197-0.339-0.203-0.44-0.375m-0.812 32.33h-0.218c-0.034 0.156 0.047 0.196 0.071 0.3 0.22 0.074 0.128-0.169 0.147-0.3m-0.514-12.63c0.043 0.204 0.202 0.295 0.442 0.301-0.011-0.24-0.171-0.332-0.442-0.301m6.703-5.789v-0.451c-0.43-0.062-0.504 0.238-0.589 0.526 0.205 0.202 0.361-0.072 0.589-0.075m4.422 1.127c0.094-0.078 0.269-0.076 0.366-0.148-0.14-0.087-0.256-0.189-0.441-0.228-0.181 0.175 0.11 0.139 0.075 0.376m0.514 0.978c0.289-0.132 0.822-0.013 0.811-0.451-0.262-0.201-0.564-0.491-0.884-0.226 0.094 0.277 8e-3 0.517 0.073 0.677m-5.818-10.15c-0.162 2.274-0.045 5.22-0.077 7.37 2.339 0.337 5.647 0.034 7.958 0.527-0.235 2.118 0.626 4.56 0 6.163-0.078 0.313 0.5 0.155 0.22 0.451-2.237 0.823-5.386 0.678-8.101 0.826-0.141 1.768-0.487 4.34 0 6.013 1.29 0.261 2.75 0.347 4.346 0.301 0.365 0.121 0.233-0.259 0.515-0.225 0.096 0.337 0.283 0.204 0.443 0.225 0.652 0.099 1.459-0.014 2.209 0.076 1.226 0.14 2.305 0.412 3.461 0.299 0.074 0.539 0.742 0.388 0.958 0.604-0.109 2.269 4e-3 4.766-0.513 6.614-6.112 0.196-11.63-0.251-17.98 0.073-0.408-1.558 0.029-3.268-0.073-4.881-0.106-1.595 0.18-3.065 0.291-4.663 0.081-1.162-0.092-2.361-0.144-3.61-0.049-1.13 0.073-2.287 0.073-3.384-3e-3 -2.893-0.192-5.4 0.294-7.592-0.012-3.628-0.072-8.699 0.518-12.86 3.512-0.033 7.086 0.082 10.9-0.074 0.139 0.031 5e-3 0.344 0.293 0.225 0.604-0.168 1.246-0.031 1.766 0 1.77 0.104 3.8-0.256 5.16 0.226-0.108 0.537-0.31 0.475 0.073 0.676-0.477 2.817 0.331 4.988 0.516 7.517-4.012-0.678-8.55-1.014-13.11-0.902" style="fill:#fff" inkscape:connector-curvature="0"/></g><g transform="translate(541 219)"><path d="m0 0h-0.285c-0.078 0.273 0.268 0.116 0.214 0.364 0.239-0.067 0.035-0.137 0.071-0.364m-0.143-11.13h-0.284c-0.032 0.228 0.062 0.325 0.284 0.292zm-0.142 18.55h0.285c0.03-0.249-0.021-0.412-0.285-0.364zm-2.281-15.35c-0.059 0.036-0.115 0.076-0.213 0.074-0.018 0.257 0.1 0.378 0.355 0.363 0.057-0.251-0.079-0.31-0.142-0.437m-0.644 8.003c-0.103-0.277 0.32-0.017 0.216-0.291-0.466 0.033-0.714 0.291-0.929 0.581 0.089 0.204 0.44 0.138 0.713 0.145 4e-3 -0.218 0.132-0.306 0.287-0.363-0.022-0.101-0.181-0.061-0.287-0.072m-2.351-6.186c-1.146-0.212-2.774 0.068-3.923-0.145 0.013 3.242-0.195 7.439-0.141 11.06-0.177 0.102-0.67 0.24-0.858 0.29 0.176 0.175 0.568 0.331 0.785 0.656-0.05 3.925 0.406 7.358-0.072 10.91 0.758 0.397 2.257-0.072 3.211 0.072 0.094-4.332-6e-3 -9.01 0.356-13.24 0.048-0.576-0.076-1.182 0-1.748 0.074-0.574 0.448-1.164 0.498-1.746 0.03-0.36-0.083-0.718-0.07-1.091 0.051-1.693 0.413-3.465 0.214-5.021m-4.636-0.363c-0.251 0.154 0.155 0.437 0.284 0.218 0.031-0.2-0.263-0.069-0.284-0.218m-0.426 11.13c0.105 0.116 0.404 0.106 0.355-0.146-0.126 0.01-0.148-0.091-0.286-0.072-0.039 0.058-0.074 0.119-0.069 0.218m-0.215 1.744c0.255-0.059 0.345 0.165 0.5 0-0.065-0.159-0.558-0.338-0.5 0m-0.855 0.873c-0.024 0.291 0.136 0.396 0.427 0.365-0.044-0.221-0.157-0.369-0.427-0.365m0.285-2.544h-0.285c0.035 0.105 0.103 0.182 0.142 0.291 0.125-0.019 0.164-0.125 0.143-0.291m-1.568 2.618c0.066 0.285 0.76 0.625 0.853 0.217-0.389 0.059-0.438-0.529-0.853-0.217m0.57-1.09c-0.03 0.151 0.047 0.194 0.071 0.29 0.155 0.015 0.226-0.057 0.212-0.219-0.126 0.01-0.149-0.087-0.283-0.071m-1.928-17.24c0.066 0.128 0.252 0.189 0.358 0.073-5e-3 -0.184-0.265-0.173-0.358-0.073m-1.352 17.02c0.109 0.229 0.425 0.548 0.713 0.362-0.054-0.61-0.461-0.098-0.713-0.362m-0.286 1.091c0.038 0.06 0.073 0.118 0.071 0.218h0.286c0.032-0.227-0.152-0.23-0.357-0.218m0.286 15.5h0.213c0.021-0.192-0.027-0.312-0.213-0.292zm16.9-3.785c-0.028 0.507-0.305 1.028-0.144 1.531-0.361 0.797-1.139 1.454-1.853 2.181-0.667 0.68-1.32 1.587-2.138 1.89-1.44 0.539-3.636-0.29-5.42-0.29-1.402 0-2.664 0.21-4.063 0.071-0.26-0.07-0.031 0.357-0.355 0.219-2.541-0.023-5.36 0.489-7.703 0.364-0.132-0.585-0.031-1.262 0.285-1.599-0.526-0.938-0.11-2.193-0.142-3.2-0.025-0.793-0.238-1.525-0.358-2.185 0.76-0.693 2.276-0.21 3.425-0.436 0.233-3.275 0.599-6.405 0.284-9.896-0.134-0.327 0.255-0.123 0.286-0.289-0.617-1.952-0.232-4.196-0.144-6.258 0.095-2.237 0.081-4.656-0.071-6.984-0.958-0.015-2.307 0.379-3.138-0.219-0.098-2.311-0.374-5.318 0.642-6.983 3.008-0.153 5.919-0.088 8.772 0.219 1.739-0.243 4.126-0.061 6.058-0.147 0.435-0.02 0.884-0.155 1.285-0.072 0.59 0.115 1.387 0.834 2.069 1.236 0.921 0.545 1.915 1.306 2.351 1.962 0.651 0.979 0.042 2.084 0.072 3.35 0.015 0.618 0.267 1.259 0.285 1.89 0.044 1.407-0.055 2.897-0.144 4.367-0.082 1.417 0.046 2.759 0.144 4.22 0.06 0.895-0.153 1.79-0.214 2.69-0.094 1.336 0.22 2.279 0.285 3.422 0.08 1.447-0.165 2.986-0.285 4.438-0.132 1.62 0 3.147-0.071 4.508" style="fill:#fff" inkscape:connector-curvature="0"/></g><g transform="translate(492.4 240.5)"><path d="m0 0c-0.426-0.065-0.592-0.398-0.772-0.717 0.343 0.152 0.658 0.332 0.772 0.717m-0.209-3.079c0.154 0.163-0.021 0.401-0.282 0.359 0.042-0.173 0.062-0.367 0.282-0.359m2.103-28.2c-0.082 0.059-0.186 0.095-0.35 0.071-0.083-0.18-0.103-0.421-0.141-0.644 0.29 0.062 0.391 0.316 0.491 0.573m0.912 18.82c-0.135 0.173-0.148 0.382 0 0.501-0.443 0.203-0.855-0.087-0.842-0.572 0.162-0.23 0.664-0.097 0.842 0.071m0.913 0.644c-0.19 0.048-0.736-0.152-0.913-0.357 0.436-0.016 0.754 0.088 0.913 0.357m2.175-0.501c0.014 0.135-0.08 0.157-0.071 0.286h-0.281c-0.059-0.084-0.093-0.189-0.07-0.357 0.211-0.087 0.24-0.022 0.422 0.071m0.841-6.084c0.013 0.228-0.25 0.173-0.35 0.286-0.046-0.259 0.146-0.28 0.35-0.286m-0.071 8.661c0.218-0.093 0.398 0.203 0.212 0.286-0.07-0.094-0.191-0.14-0.212-0.286m5.262-6.729c0.014 1.064-0.356 2.134-0.421 3.222-0.171 2.908 0.301 5.836 0.35 8.875-0.783 3e-3 -2.34 0.093-3.295-0.143 0.352-7.622-0.156-15.7 0.208-23.34 1.339 0.057 2.357 0.02 3.717 0.073-0.1 3.461-0.79 6.855-0.7 10.23 9e-3 0.359 0.134 0.707 0.141 1.074m2.105-8.303c0.348-0.042 0.301 0.32 0.069 0.357-0.056-0.082-0.093-0.19-0.069-0.357m3.016 6.586c0.285-0.03 0.44 0.074 0.419 0.357-0.228 0.201-0.5-0.018-0.419-0.357m1.753 8.876c0.076 0.28-0.417 0.285-0.42 0.072 0.14 0 0.087-0.194 0.279-0.145 0.014 0.057 0.058 0.084 0.141 0.073m0.982-5.87c7e-3 -1.548-0.158-3.112-0.068-4.653 0.14-2.508-0.071-5.168-0.071-7.801 0-1.684 0.196-2.563-0.493-3.651-0.213-0.338-0.414-0.755-0.63-1.003-0.386-0.441-0.967-0.713-1.333-1.144-0.398-0.475-0.447-1.087-0.912-1.433-5.887 0.379-11.84-0.154-17.61 0.071 0.06 2.533-0.207 5.068-0.348 7.302 0.861 0.241 1.959 0.241 3.013 0.286 0.484 7.287 0.101 15.06 0.212 22.76-1.324-0.072-2.935-0.24-3.718 0.429 0.825 2.022 0.24 5.082 0.141 7.445 5.809-0.071 11.8-0.543 17.68-0.787 1.195-1.908 2.713-3.484 3.93-5.369 0.157-3.039 0.027-6.263 0-9.448-0.01-0.996 0.207-2.023 0.209-3.007" style="fill:#fff" inkscape:connector-curvature="0"/></g><g transform="translate(476.3 238.8)"><path d="m0 0c-0.143 0.02-0.066 0.264-0.211 0.286-0.154-0.194-0.078-0.179-0.139-0.431 0.176-0.011 0.339-0.011 0.35 0.145m7.295-15.39c0.033 0.223-0.06 0.319-0.28 0.287v-0.287zm5.543-11.1c0.38-2.118 0.228-4.954-0.071-6.872-6.05-0.042-12.68-0.477-18.45-0.285-0.613 4.523-0.271 9.971-0.49 15.03-0.086 1.966-0.322 4.117 0.35 5.657-0.467 1.395-0.31 3.119-0.35 4.938-0.035 1.546 0.071 3.23 0.071 4.868 0 2.69-0.09 5.133 0.279 7.301 1.822 0.104 4.151 0.096 6.174 0.072 4.321-0.05 9.081 0.598 12.35-0.788v-7.086c-3.18 1.29-8.025 0.608-12.14 0.645-0.175-2.144 0.033-5.107 0.28-7.302 2.689-0.05 5.305 0.279 7.995 0.429 0.365-1.905 0.29-4.486 0.353-6.657 0.012-0.399 0.125-0.778 0-1.145-0.939 0.039-2.378-0.409-2.946 0.143-0.65-0.339-1.814-0.459-2.737-0.285 0.57 0.298 2.09 0.506 1.263 1.359-0.455-0.054-0.091-0.516-0.421-0.715-0.722 0.044-0.959-0.455-1.193-0.717-0.407-0.152-0.181 0.341-0.421 0.358-0.379 0.021 0.021-0.339-0.281-0.429-0.51 0.065-0.797-0.02-1.404 0-0.422-1.669 0.335-3.272 0.212-4.869-0.052-0.696-0.345-1.361-0.35-2.074-2e-3 -0.556 0.198-1.003 0.068-1.575 3.017-0.23 5.982 0.012 9.052 0.142 0.207-0.205-0.175-0.125-0.141-0.357 0.283 0.182 0.514-0.21 0.701 0.073 0.07 0.236-0.097 0.235-0.279 0.213 0.694 0.113 1.924 0.156 2.524-0.071" style="fill:#fff" inkscape:connector-curvature="0"/></g><g transform="translate(449 227.7)"><path d="m0 0c0.047 0.329 0.533 0.828 0.14 1.145-0.186-0.335-0.331-0.711-0.84-0.716 0.059-0.249-0.133-0.3 0-0.429 0.324 0.027 0.404 0.089 0.7 0m0.703 12.67c0.321-0.021 0.657 0.635 0.491 0.645-0.089-0.171-0.316-0.203-0.491-0.286zm0.841-19.76c0.126 0.135 0.081 0.503-0.21 0.431-0.095-0.107 9e-3 -0.413 0.21-0.431m1.545-7.801h-0.212c-0.058-0.239-0.31-0.797 0.07-0.859 0.05 0.373 0.076 0.432 0.142 0.859m0.84-3.507c-0.023 0.166-0.045 0.333-0.281 0.286-0.057-0.083-0.093-0.192-0.07-0.358 0.165-0.023 0.269 0.011 0.351 0.072m0.141 32.35c-0.111-0.334 0.362-0.248 0.281 0zm0.771 1.145v0.215c-0.161 0.021-0.264-0.018-0.28-0.144 0.093-0.024 0.133-0.1 0.28-0.071m0.281-23.26c0.053 0.245-0.269 0.281-0.281 0.071 0.143-0.038 0.137-0.213 0.281-0.071m0.14 22.26c0.173 0.34 0.336 0.253 0.351 0.716-0.193 0.02-0.504 0.291-0.701 0.072 0.152 0.01 0.221-0.06 0.21-0.215-0.07 0-0.085-0.057-0.141-0.073-0.125 0.07-0.388 0.359-0.561 0.144 0.043-0.098 0.269-0.013 0.28-0.144-0.143-0.137-0.457-0.047-0.56 0.073-0.091 0.331 0.352 0.12 0.211 0.5-0.451 0.101-0.422-0.285-0.491-0.573 0.359-0.523 0.876-0.407 1.402-0.5m-0.07-32.71c0.266-0.047 0.497 0.13 0.352 0.287-0.167 2e-3 -0.209-0.123-0.422-0.071 0.038-0.349-0.298-0.317-0.281-0.645 0.281-0.047 0.281 0.187 0.562 0.144 0.06 0.229-0.181 0.148-0.211 0.285m0.561 14.1c0.044 0.379-0.376 0.309-0.35 0 0.214-0.052 0.134-0.052 0.35 0m-0.281 18.32c0.321 0.034 0.398-0.125 0.632 0-0.018 0.339-0.559 0.202-0.632 0m0.982 0.286c0.065 0.129 0.286 0.093 0.211 0.357h-0.28c0.037-0.104-0.082-0.37 0.069-0.357m5.051-2.65c-0.02-0.335 0.205-0.702 0.491-0.501-0.103 0.231-0.265 0.399-0.491 0.501m1.122-0.07c0.012 0.155-0.057 0.226-0.211 0.214-0.023-0.095-0.099-0.139-0.069-0.285 0.132-0.016 0.155 0.079 0.28 0.071m0.14-4.438c0.064 0.719 0.15 1.733 0 2.434-2.068-0.155-4.769 0.334-6.382-0.286 0.041-0.621-0.138-1.48 0-2.148 2.232-0.156 4.072 0.245 6.382 0m0.281-10.02c-0.191-0.05-0.133 0.15-0.21 0.215-0.261-0.239-0.467 0.233-0.56-0.07 0.093-0.072 0.21-0.121 0.28-0.216-0.123 6e-3 -0.22-0.017-0.28-0.071 0.025-0.505 0.055-0.394 0-0.859 0.478 0.107 0.511 0.672 0.77 1.001m2.877-12.67c0.444-0.047 0.418 0.385 0.421 0.788-0.35-0.024-0.524-0.535-0.421-0.788m3.157 24.62c-0.068-0.259 0.39-0.151 0.35 0-0.175 9e-3 -0.216 0.135-0.35 0m1.472-30.99c0.332-0.845-1.37-0.499-1.332-0.358-1.517-0.409-3.949 0.117-5.471-0.286-1.404 3.016-2.148 6.469-3.088 9.949-0.699 2.586-1.282 5.206-1.752 8.089-0.238 1.453-0.793 2.84-0.843 4.581-0.459 0.119-1.388 0.137-1.753-0.072 0.435-7.135 1.42-14.97 0.491-22.05-2.031-0.17-4.111-0.292-6.313-0.284-1.637 1.099-0.493 4.071-0.983 6.153-0.06 0.261-0.249 0.538-0.28 0.789-0.209 1.676 1.192 5.36-0.071 6.87-0.161 0.644 0.032 1.205 0 1.862-0.028 0.597-0.323 1.237-0.351 1.861-0.096 1.961 0.428 4.02 0.351 5.869 0.137-0.297 0.305 0.302 0.28-0.213 0.328 0 0 0.667 0.212 0.786-0.264 0.291-0.45-0.361-0.56-0.214-0.164 0.668 0.341 0.652 0.56 0.93-0.104 0.19-0.367-0.27-0.56 0-4e-3 4.426-0.21 9.025 0.068 13.32 6.436-0.16 13.21 0.157 20.06-0.144-0.395-1.665 0.471-2.896 0.63-4.368 0.08-0.713-0.13-1.418-0.139-2.289-0.012-1.193 0.236-2.487 0.421-3.723 0.173-1.156 0.588-2.729 0.351-3.65-0.465-1.814-2.707-0.797-4.56-1.073 0.233-2.053 0.944-3.619 1.193-5.656-0.55-0.098-0.717-0.172-1.122-0.358 0.111-0.531 0.765-0.507 1.263-0.644 0.963-4.837 2.513-9.504 3.155-14.89-0.22-0.132-0.551-0.153-0.911-0.143 0.206-0.316 0.497-0.464 0.21-0.932 0.328-0.259 0.575 0.487 0.841 0.287" style="fill:#fff" inkscape:connector-curvature="0"/></g><g transform="translate(607.3 176.2)"><path d="m0 0c0.329 0 0.493 0.167 0.493 0.502-0.305-0.025-0.467-0.191-0.493-0.502m0-0.788c0.276-0.067 0.486 0.29 0.213 0.358-0.022-0.169-0.244-0.134-0.213-0.358m0.843 7.302c-0.628-0.039-0.488-0.414-0.843-0.716 0.533-0.285 0.693 0.379 0.843 0.716m0-6.227c-0.277 0.045-0.31-0.162-0.35-0.359 0.2 0.034 0.319 0.152 0.35 0.359m-0.068 7.515c0.217-0.032 0.31 0.062 0.278 0.288-0.218 0.031-0.314-0.063-0.278-0.288m0.278-1.932c0.235-0.066 0.471 0.23 0.279 0.357-0.068-0.142-0.307-0.112-0.279-0.357m-0.071-6.8c-0.049-0.269 0.534-0.173 0.423 0.071-0.214 0.051-0.255-0.074-0.423-0.071m0.633 7.301c0.161 0.283 0.248 0.447 0.138 0.858-0.095-3e-3 -0.154 0.034-0.208 0.073-0.045-0.221-0.533-0.358-0.352-0.574 0.195 0.132 0.055-0.122 0-0.285 0.173-0.151 0.15-0.103 0.422-0.072m14.24-9.234c-0.302 0.211-0.587-0.253-0.491-0.43 0.359-0.056 0.406 0.207 0.491 0.43m-0.21 0.286c0.243-0.027 0.455-0.166 0.42 0.214-0.236 0.027-0.297-0.125-0.42-0.214m3.928 15.39c0.137-1.611-0.07-3.267-0.07-4.941 0-6.372-0.148-13.37-0.281-19.33-1.435-0.343-3.711-0.209-5.472-0.07-0.573 0.531-0.71 1.379-0.983 2.074-1.963 5.007-3.971 10.3-6.031 15.32-0.062-2.795-0.202-5.748-0.071-8.661 0.131-2.909 0.058-5.918-0.211-8.59-1.953-0.25-3.893-0.198-5.961-0.072-0.245 0.58-0.39 1.247-0.493 1.933-0.098 0.657-0.329 1.428-0.35 2.076-0.015 0.479 0.194 1.026 0.211 1.503 0.068 1.825-0.516 3.73-0.632 5.655-0.122 2.027 0.044 4.218 0.139 6.371 0.28 6.23 0.142 12.95-0.279 18.97 2.523 0.073 4.815 0.303 7.225 0.142 0.626-3.084 1.616-5.777 2.878-8.302 1.258-2.524 2.009-5.235 3.085-8.018 0.246 1.327 0 2.686 0 4.079 0 4.034-0.059 8.01 0 12.1 1.985 0.142 4.782 0.268 6.664-0.073 0.524-0.881 0.319-1.929 0.351-2.935 0.095-3.145 0.016-6.114 0.281-9.232" style="fill:#fff" inkscape:connector-curvature="0"/></g><g transform="translate(585.9 174.8)"><path d="m0 0c0.114-0.117 0.442-0.088 0.421 0.143-0.059 0.107-0.224 0.105-0.35 0.142 0.014-0.132-0.08-0.157-0.071-0.285m0.913 19.18c0.018 0.188-0.027 0.307-0.21 0.285-0.128-0.121 0.02-0.278 0.21-0.285m0.21-13.03c-4e-3 0.094-0.091 0.1-0.072 0.216-0.429 0.058-0.612-0.136-0.84-0.284-0.058-0.401 0.114-0.679 0-0.933 0.214-0.05 0.256 0.076 0.421 0.072 0.043 0.279 0.057 0.295-0.071 0.501 0.252 0.078 0.485 0.173 0.562 0.428m0.35 0.574c0.029 0.138 0.152 0.179 0.141 0.359-0.254-0.173-0.963 0.122-0.842-0.431 0.353-0.05 0.413 0.245 0.701 0.072m1.754-5.153h-0.351v-0.286c0.168 0.044 0.327 0.095 0.351 0.286m0.772 6.155c0.155 0.153 0.163 0.453 0.21 0.716-0.338 0.13-0.611-0.065-0.911 0.143 0.076-0.267-0.176-0.203-0.142-0.429 0.504 0.083 0.308-0.546 0.843-0.43m0.21-7.229c-0.104 0.112-0.4 0.105-0.351-0.143 0.176-0.011 0.339-0.011 0.351 0.143m-0.492 11.1c0.339-0.091 0.663 0.09 0.633 0.572-0.375-0.024-0.403-0.4-0.633-0.572m1.054-7.016c0.285 0.826-0.468 0.993-0.702 1.505-0.07-0.097-0.191-0.143-0.211-0.288 0.131-0.25 0.415-0.34 0.562-0.573-0.423-0.348-0.719-0.164-1.122-0.644 0.724-0.117 1.06 0.388 1.473 0m0.07 1.433c0.219 0.263-0.138 0.44-0.211 0.285 0.142-0.022 0.068-0.266 0.211-0.285m0.282 0.571c0.295 7e-3 0.414 0.193 0.49 0.431-0.221 0.071-0.662 0.451-0.772 0 0.321-0.084 0.521-0.094 0.282-0.431m0.278-8.876c-0.05 0.165 0.126 0.559-0.139 0.502-0.103-0.114-0.147-0.571 0.139-0.502m8.839 12.1h-0.211c-0.035-0.504-0.681-0.552-0.981-0.573 0.04-0.248-0.33-0.236-0.141-0.429 0.53 8e-3 0.538 0.549 1.262 0.358-0.203 0.386 7e-3 0.249 0.071 0.644m4.068-16.25c0.165 0.025 0.328 0.05 0.281 0.289-0.219 0.031-0.313-0.063-0.281-0.289m0.982 10.02c-0.017-1.581 0.101-3.178 0.071-4.726-0.011-0.686-0.286-1.328-0.282-2.002 4e-3 -0.374 0.193-0.693 0.211-1.002 0.043-0.585-0.252-1.13 0.071-1.719-0.638-1.319-0.057-3.305-0.139-4.795-1.653-0.08-3.313 0.206-4.911 0.214-1.763 0.01-3.51-0.354-5.051 0-0.319 2.18-0.779 5.067-0.211 7.157 0.206 0.1 0.304-0.041 0.631 0-0.374-0.262-0.705-0.306-0.561-0.784 0.106-0.352 0.857-0.264 0.913-0.648 0.205 9e-3 0.261 0.166 0.349 0.287 0.239 6e-3 0.042-0.435 0.283-0.428 0.178 0.282 0.424 0.08 0.629 0.357-0.238 0.359-0.67 0.722-1.261 0.501 0.178 0.263-0.167 0.359 0.069 0.573 0.235 0.214 0.311-0.146 0.563-0.073 0.227 0.071 0.351 0.315 0.629 0.36 0.318 0.05 0.653-0.045 0.984-0.073 0.19 3.559-0.522 7.476-0.28 11.6 0.107-0.161 0.171-0.161 0.28 0-0.062 0.295-0.441 0.267-0.28 0.787 0.371 0.171 0.694 0.386 0.91 0.716-0.359 0.268-0.5-0.297-0.91-0.214-0.015 3.278 0.073 6.661-0.212 9.662-1.735-0.053-3.278 0.143-4.91 0 0.023-3.332 0.088-7.002 0.069-10.66-0.018-3.809 0.639-7.752 0.073-10.74-0.081-0.19 0.132-0.312 0.086-0.131 0.087-0.311-0.041-0.711-0.086-1.087 1.059-7e-3 1.206-0.548 1.189-1.716-0.019-1.721 0.498-4.408 0.071-5.513-2.349-0.241-5.132 0.166-7.716 0.145-0.155 4.517-0.845 8.491-0.772 13.24 0.034 0.277 0.422 0.191 0.561 0.358-0.191 0.635-0.153 1.188 0.211 1.504-0.196 0.191-0.73-0.034-0.841 0.071-0.098 0.387 0.189 0.38 0.211 0.645 0.026 0.264-0.284 0.187-0.211 0.5 0.1 3.004-0.403 6.075 0.069 8.732 0.082 0.46 0.337 0.848 0.351 1.29 0.011 0.27-0.13 0.524-0.14 0.785-0.017 0.493 0.179 1.014 0.211 1.505 0.183 2.744-0.526 5.482-0.562 8.375 1.59 0.168 3.04-0.082 4.489 0 3.999 0.231 8.448 0 12.14 0 1.065 0 1.658 8e-3 2.314-0.716 0.598-7.259 0.783-14.98 0.701-22.33" style="fill:#fff" inkscape:connector-curvature="0"/></g><g transform="translate(577 177.6)"><path d="m0 0h-0.211c0.089-0.591-0.699-0.288-0.769-0.717 0.376-0.085 0.492-6e-3 0.909 0-0.014 0.278-2e-3 0.528 0.071 0.717m3.158 1.073c0.106-0.223 0.484-0.56 0.63-0.143-0.171 0.072-0.48 0.492-0.63 0.143m1.191-0.857c-0.078 0.043-0.578 0.061-0.632-0.144 0.219-0.103 0.532-0.069 0.632 0.144m1.613 1.716c-0.216-0.051-0.135-0.051-0.35 0v-0.286c-0.424 0.027-0.74-0.107-0.773-0.644 0.268 0.031 0.331-0.142 0.492-0.215-0.106 0.394 0.465 0.099 0.492 0.359-0.363 0.268 0.093 0.51 0.139 0.786m-0.139 5.941c0.331-0.119 0.384 0.411 0.069 0.358-0.058-0.083-0.094-0.191-0.069-0.358m-0.211-8.446c0.026 0.453 0.929 0.388 0.772 0.789-0.017-0.126-0.119-0.165-0.283-0.144 0.061 0.393-0.185 0.477-0.419 0.572-0.228-0.293-0.297-0.744-0.843-0.715 0.221-0.229-0.077-0.538-0.139-0.717 0.011-0.155 0.177-0.155 0.352-0.141 0.035 0.103-0.083 0.368 0.069 0.356zm0.632 24.55c0.856-4.804 0.894-10.44 0.842-16.18-0.18-0.036-0.5-0.258-0.842-0.214-0.157-0.613 0.576-0.319 0.842-0.501-0.101-1.904 0.234-4.252-0.283-5.728 0.135-0.076 0.287-0.135 0.213-0.429 0.074-4.836 0.312-10.08-0.283-14.39h-7.365c-0.201 1.586-0.532 3.316-0.42 5.011 0.172 2.642-0.45 5.617-0.33 7.943 0.033-7e-3 0.057-0.02 0.049-0.07 0.07 0 0.085-0.057 0.141-0.072 0.062 0.366 0.497 0.353 0.702 0.574-0.252-0.07-0.126 0.309-0.071 0.357-0.148 0.127-0.208 0.16-0.419 0.072-0.026-0.168 9e-3 -0.276 0.068-0.358-0.295-0.022-0.28-0.358-0.468-0.484 0.014 0.192 0.026 0.377 0.047 0.556-0.455 1.718 0.276 3.447 0.141 5.226-0.095 1.269-0.08 2.881-0.071 4.366 7e-3 1.215-0.26 2.518-0.211 3.721 0.055 1.272 0.275 2.526 0.352 3.793 0.136 2.239-0.319 4.55 0.419 6.587 2.353 0.039 4.518 0.222 6.947 0.213" style="fill:#fff" inkscape:connector-curvature="0"/></g><g transform="translate(564.1 197)"><path d="m0 0v0.215c-0.123 7e-3 -0.22-0.015-0.282-0.07-0.07-0.215 0.156-0.129 0.282-0.145m6.452-2.648c-6e-3 0.305 0.429 0.427 0.283 0.645-0.256 0.02-0.457-0.013-0.632-0.071-0.025-0.396-0.126-0.601 0.349-0.574m3.299 7.087c0.433-2.171 0.807-6.001-0.21-7.589-0.276-0.1-0.581-0.169-0.772-0.356-1.38 0.403-3.367 0.147-4.911 0.07-0.096-1.353 0.289-3.094 0.141-4.652-0.036-0.355-0.197-0.681-0.212-1.001-0.044-0.955 0.365-2.259 0.422-3.58 0.064-1.566-0.033-3.043-0.071-4.438-0.09-3.286 0.164-6.964 0.352-10.09 0.035-0.614 0.194-1.217 0.209-1.792 0.012-0.528-0.151-1.032-0.139-1.504 0.019-0.87 0.362-1.367-0.493-1.717-0.032-0.325-0.236-0.474-0.419-0.645-2.024-0.225-4.601-0.161-6.384-0.07-0.243 2.38-0.07 5.126-0.07 7.874 0 2.753-0.173 5.545-0.069 7.945 0.016 0.436 5e-3 0.315 0.209 0.644 0.052 0.318-0.357 0.162-0.209 0.573 0.072 3.068 0.069 6.138 0.069 9.52 0 1.058 0.114 2.723-0.212 3.006-0.419 0.365-2.554 0.039-3.295 0-1.43-0.074-2.818-0.05-4.21 0.071-0.231 1.002 0.138 2.962 0 5.083-0.049 0.79-0.587 3.093 0.421 3.363 0.922 0.248 1.96-0.255 2.808-0.286 0.919-0.032 1.937 0.089 3.015 0.075 4.686-0.076 9.975 0.249 14.03-0.503" style="fill:#fff" inkscape:connector-curvature="0"/></g><g transform="translate(532.4 182.9)"><path d="m0 0c0.019 0.1 0.118 0.119 0.142 0.215-0.105 0.082-0.296 0.251-0.353 0 0.134-9e-3 0.05-0.238 0.211-0.215m-0.348 4.367c0.297-0.043 0.133 0.386 0.49 0.286-0.024 0.189-0.183 0.242-0.353 0.287 0.059-0.299-0.136-0.338-0.137-0.573m0.209 0.715c0.22-0.033 0.314 0.063 0.281 0.286h-0.211c0.013-0.134-0.079-0.159-0.07-0.286m0.771-12.46c-0.345 0.02-0.567-0.088-0.632-0.355 0.372-0.046 0.594 0.062 0.632 0.355m0.703 9.667c0.078 0.085 0.199 0.128 0.14 0.357-0.172 8e-3 -0.341 0.012-0.422-0.073 0.01-0.181 0.103-0.277 0.282-0.284m0.91-13.67c0.086 0.01 0.168 0.022 0.141 0.143-0.417 0.094-0.091-0.574-0.49-0.5 0.209 0.307 0.047 0.352-0.071 0.643 0.23 0.242 0.618 0.324 0.701 0.717-0.312-0.199-0.438 0.158-0.63 0 0.089 0 0.089-0.199 0-0.215-0.109 0.104-0.138 0.289-0.421 0.215-0.081-0.192 0.134-0.421 0-0.43-0.636-0.068-0.901-0.513-1.405-0.716-0.049-0.265 0.122-0.307 0.072-0.573 0.445-0.569 1.663-0.104 2.103-0.358-0.218 0.532 0.346 0.64 0 1.074m-0.07 17.61c0.048-0.172 0.39-0.22 0.351 0.07-0.102-0.037-0.361 0.084-0.351-0.07m1.615-22.19c-0.11-0.214 0.362-0.189 0.349-0.071-0.144 0.041-0.227 0.205-0.349 0.071m0.071 25.12c-0.055-0.321 0.466-0.266 0.35 0.072-0.2 0.06-0.181-0.102-0.35-0.072m0.77-7.729c-0.28-0.024-0.314 0.205-0.28 0.499-0.154 0.156-0.469 0.145-0.632 0.289 0.092-0.652 0.469-0.774 0.702-1.146 0.18 6e-3 0.115 0.266 0.21 0.358m0.07-10.02c-0.276 0.048-0.31-0.159-0.35-0.356 0.277-0.045 0.309 0.161 0.35 0.356m0.209-8.445c0.057 0.248-0.063 0.316-0.209 0.359-0.136-0.138-0.073-0.44 0.209-0.359m0.283 0.213c0.321 0 0.485 0.238 0.351 0.503-0.314 0.034-0.384-0.182-0.351-0.503m0.77 17.61c-0.268 0.036-0.37-0.098-0.419-0.287 0.197-0.089 0.415-7e-3 0.419 0.287m0-0.93v0.214c-0.122 6e-3 -0.218-0.014-0.28-0.071-0.071-0.215 0.154-0.13 0.28-0.143m-0.351-13.24c0.339-0.036 0.357 0.257 0.351 0.573-0.192 0.147-0.624 0.055-0.7-0.141 0.353 0.098 0.397-0.121 0.349-0.432m0.841 0.716c-0.159 0.157-0.438 0.028-0.419-0.213 0.247-0.04 0.363 0.06 0.419 0.213m-0.279 18.25c0.145-0.125 0.599-0.134 0.491 0.215-0.158 0.14-0.506 0.038-0.491-0.215m0.841-18.54c-0.069 0.141-0.118 0.304-0.28 0.356-0.014-0.056-0.057-0.082-0.14-0.072 0.209-0.337-0.142-0.39-0.281-0.572 0.22-0.283 0.646-0.018 0.701 0.288m0.563-2.006c-0.09 0.355 0.167 0.352 0.139 0.643-0.415-0.171-0.553-0.628-0.911-0.857 0.306-0.161 0.506 0.128 0.772 0.214m0.42 23.48c0.13 0.031 0.424-0.1 0.351 0.142h-0.351zm1.964 5.798c0.029 0.172-0.128 0.154-0.07 0.356-0.277 0.045-0.31-0.159-0.349-0.356 0.13-0.141 0.254-0.022 0.419 0m0.703 0.5c-0.176 0.013-0.294-0.037-0.353-0.144 0.14-0.175 0.328-0.14 0.353 0.144m1.963-5.726c-0.085 1.007-0.125 2.292-0.069 3.22-1.764 0.081-4.047 0.371-5.402-0.286 0.171-0.927-0.178-1.982 0.139-2.792 1.631 0 3.523-0.508 5.332-0.142m0.911-5.368c0.203-0.016 0.383-0.011 0.352 0.214-0.131-0.015-0.155 0.081-0.281 0.07-0.024-0.093-0.101-0.137-0.071-0.284m2.036 0c-0.362 0.08-0.546-0.398-0.492-0.502 0.149 0.182 0.476 0.182 0.492 0.502m4.207 15.1c0.312-5.833 0.372-11.61 0.07-17.54-1.322-0.156-2.995-0.361-4.277-0.144-0.187 0.033-0.668-0.165-0.632 0.214-1.306-0.389-3.089-0.07-4.7 0-0.816 0.036-1.596-0.112-2.315-0.142-0.547-2.91-0.149-6.403 0-9.735 0.155-3.439-0.087-6.812-0.281-9.878-2.349-0.494-5.542 0.053-8.136-0.144-0.033 1.072 0.041 2.226 0 3.365-0.043 1.09-0.372 2.114-0.352 2.935 0.02 0.799 0.374 1.787 0.422 2.792 0.137 2.961 5e-3 6.26-0.142 9.448-0.137 3.047-0.209 6.337-0.14 9.375 0.024 1.043-0.022 2.133 0.14 3.007 0.055 0.288-0.148 0.496 0.35 0.572-0.064 0.224-0.475 0.088-0.35 0.502 0.136 1.759-0.041 3.762-0.421 5.225-4e-3 0.103-9e-3 0.204 0.071 0.215 7.027-0.044 13.86 0.072 20.69-0.071" style="fill:#fff" inkscape:connector-curvature="0"/></g><g transform="translate(512.6 187)"><path d="m0 0c0.344 0.077 0.63 0.215 0.56 0.715-0.487 0.069-0.481-0.368-0.56-0.715m5.542-2.864c-0.162 0.02-0.266-0.019-0.282-0.143 0.178-0.01 0.14-0.238 0.14-0.429 0.209 0.027 0.347 0.124 0.421 0.285-0.086 0.102-0.37 4e-3 -0.279 0.287m1.331 3.72c0.194-0.186 0.555-0.147 0.492 0.288-0.26 4e-3 -0.482-0.033-0.492-0.288m0.842-2.861c0.275 0.086 0.386-0.078 0.562 0.145-0.044 0.097-0.268 0.01-0.282 0.14-5e-3 0.115 0.01 0.249-0.139 0.216-0.056-0.159-0.146-0.281-0.141-0.501m0.071-0.429c-0.046-0.31 0.66-0.457 0.561 0-0.214 0.098-0.252-0.034-0.561 0m1.193 1.074c-0.265 0.327-0.575-0.058-0.772-0.216 0.221-0.06 0.099-0.471 0.419-0.429 0.221 0.111 0.342 0.322 0.353 0.645m-0.353 0.501c0.141-0.122 0.57-0.106 0.632 0.072-0.198 0.06-0.285 0.233-0.56 0.214-0.024-0.095-0.102-0.139-0.072-0.286m1.052-1.432c0.022 0.187-0.095 0.236-0.279 0.215-0.07-0.237 0.097-0.236 0.279-0.215m2.666-2.077c0.09-0.155 0.537-0.076 0.492 0.144-0.175 0.065-0.481 0.139-0.492-0.144m0.632 4.368c-0.082-0.305 0.556-0.286 0.561-0.073-0.136 0.085-0.391 0.236-0.561 0.073m1.684 9.09c-0.052-0.272 0.452-0.155 0.35 0.072-0.162 0.024-0.268-0.012-0.35-0.072m1.192-28.92c-4e-3 0.127 0.016 0.223 0.07 0.287-0.18 0.165-0.473 9e-3 -0.42-0.287 0.135-0.133 0.126 0.042 0.35 0m0.212 18.25c0.095 0.093 0.123 0.43-0.072 0.43-0.097-0.115-0.248-0.177-0.209-0.43zm-0.212 0.501c0.335 0.138 0.648 0.292 0.702 0.717-0.361-0.077-0.739-0.463-0.702-0.717m1.544 7.946c-0.154-1.456 0.403-3.051 0.21-4.582-0.123-0.962-0.13-2.749-0.141-4.009-0.01-1.517 0.34-2.835 0-4.294-0.093-0.405-0.358-0.786-0.42-1.218-0.256-1.766 0.261-3.557 0.351-5.367 0.1-1.954 8e-3 -3.973-0.071-5.87-0.019-0.459 0.068-1.106-0.421-1.36-0.325 0.127 0.12 0.457-0.28 0.645-0.201-0.266 0.077-0.585-0.07-0.859 0.245-0.167 0.606 0.175 0.771 0.071 0.018-0.97 0.085-1.81-0.069-2.72-2.076-0.351-4.81-0.023-6.664-0.285-0.441 0.548-0.477 1.389-0.492 2.146-0.058 3.32 0.305 7.283 0.21 10.66-0.396-0.786-0.399-1.975-0.841-2.719-0.637-0.042-1.145-0.214-1.823-0.214-0.474 0.901-0.681 2.071-1.124 3.005-0.411-3.85-0.319-8.217-0.42-12.38-1.989 0.141-4.521-0.09-6.736 0.287-1.227 4.239-0.636 9.243-0.419 14.24 0.328 7.597 0.029 15.57-0.14 22.48 1.741 0.575 4.681 0.06 7.014 0.144 0.294-1.671 1.091-3.128 1.473-4.725 0.217-0.9 0.349-1.834 0.983-2.433 0.852 2.59 2.049 4.829 3.087 7.229 2.37 0.097 4.568 0.105 6.663 0-0.137-2.72-0.354-5.257-0.631-7.873" style="fill:#fff" inkscape:connector-curvature="0"/></g><g transform="translate(495.6 173.3)"><path d="m0 0c-0.301 0.213-0.588-0.253-0.491-0.427 0.359-0.058 0.406 0.205 0.491 0.427m-0.21 0.286c0.243-0.027 0.455-0.167 0.422 0.215-0.239 0.027-0.299-0.125-0.422-0.215m8.418 24.7c0.379-0.03 0.324 0.384 0.631 0.429-0.304-0.048-0.576-0.127-0.631-0.429m6.663-23.98c0.066-2.707-0.3-5.757-0.209-8.52-5.823-0.166-11.95-0.022-17.89-0.071-0.274 6.316-0.914 13.32-0.914 20.12 0 2.264 0.34 4.548 0.212 6.728-0.15 2.512-0.567 5.127-0.492 7.873 9e-3 0.3 0.056 0.819 0.211 1.004 5.436 0.283 12.34 0.145 17.96 0.07 0.644-2.181 0.569-5.099 0.842-7.659-3.966 0.205-7.94-0.195-11.78-0.356-0.379-1.384 0.072-3.559-0.141-5.298 2.296-0.785 5.624-0.514 7.788-1.43 0.016-1.943 0.059-4.347 0-6.3-2.351-0.17-5.242-0.368-7.928-0.43 0.077-2.249 0.261-4.325 0.14-6.443 4.221-0.745 8.527 0.455 12.21 0.717" style="fill:#fff" inkscape:connector-curvature="0"/></g><g transform="translate(476.7 168.3)"><path d="m0 0c0.163 0.024 0.327 0.048 0.28 0.286-0.22 0.034-0.312-0.062-0.28-0.286m1.403-2.505v0.357c-0.282 0.013-0.421-0.375-0.35-0.501 0.173-0.011 0.215 0.114 0.35 0.144m0.561 3.581c-0.059 0.516-0.295 0.021-0.631 0.213-0.098-0.092-0.071-0.309-0.071-0.502 0.363-0.035 0.436 0.224 0.702 0.289m1.262 2.145h2.946c-0.513 7.442-1.236 13.83-0.981 21.9-0.542 0.237-1.432 0.113-2.175 0.145-0.083-0.012-0.077-0.113-0.069-0.216 0.257-7.096 0.142-14.75 0.279-21.83m7.646 2.72c0.249-0.015 0.368 0.102 0.351 0.359-0.304 0.19-0.537-0.047-0.351-0.359m2.597 18.18c0.087-2.009 0.443-4.473 0.28-6.656-0.044-0.578-0.203-1.122-0.21-1.646-8e-3 -0.624 0.138-1.263 0.138-1.861 4e-3 -2.037-0.206-3.975-0.208-5.869-4e-3 -1.407 0.155-2.835 0.208-4.153 0.026-0.545-0.097-1.228-0.069-1.933 0.038-0.864 0.226-1.795 0.141-2.29-0.169-0.98-1.287-1.88-1.965-2.505-0.854-0.788-1.756-1.447-2.455-2.004h-16.76c-0.623 1.08-0.772 2.829-0.772 4.795 0 0.686-0.146 1.44 0.21 1.932 0.272 0.256 0.12-0.351 0.351-0.356 0.179 0.282 0.425 0.08 0.632 0.356-0.152 0.445-0.851 0.538-1.122 0.647-0.056 0.766 0.418 0.211 0.701 0.5 0.14 0.381-0.301 0.169-0.211 0.5 0.827-0.157 1.772-0.196 2.736-0.215 0.157 3.86-0.022 8.006 0.071 12.1-0.01 0.293 0.488 0.073 0.702 0.142-0.205 0.387 4e-3 0.248 0.07 0.644-0.398 0-0.205-0.601-0.772-0.429 0.16 3.631-0.258 6.421 0.069 9.734-0.988 0.23-2.367-0.229-3.297 0.142 0.19 2.313 0.134 5.141 0.07 7.303 5.543 0.286 11.94-0.298 16.98 0.5 0.878-0.595 1.686-1.341 2.596-2.36 0.519-0.586 1.624-1.827 1.753-2.435 0.225-1.068 0.063-2.793 0.141-4.582" style="fill:#fff" inkscape:connector-curvature="0"/></g><g transform="translate(450.5 177.5)"><path d="m0 0c-0.251-0.07-0.124 0.309-0.07 0.358-0.149 0.125-0.208 0.159-0.42 0.071-0.023-0.168 0.011-0.276 0.071-0.358-0.309-0.023-0.28-0.385-0.494-0.501 0.046-2e-3 0.083-0.013 0.071-0.072 0.071 0 0.085-0.056 0.14-0.072 0.064 0.366 0.497 0.353 0.702 0.574m1.332-3.293c-5e-3 0.183-0.258 0.115-0.35 0.214 0.056-0.247-0.104-0.274-0.07-0.501 0.223 0.012 0.418 0.05 0.42 0.287m-0.139 1.286c-0.058 0.389-0.204 1.36 0.28 1.577-0.21 0.536-1.289 0.783-1.402 0.071-0.259-0.023-0.552-8e-3 -0.561-0.286 0.402-0.157 1.095 0.215 1.332-0.212-0.094-0.145-0.135-0.343-0.21-0.504 0.046-0.143 0.417 0.045 0.35-0.214-0.109-0.269-0.398-0.358-0.49-0.646 0.163-0.094 0.643-0.022 0.701 0.214m2.455 3.151c0.108-0.224 0.485-0.561 0.631-0.143-0.172 0.072-0.479 0.492-0.631 0.143m1.192-0.859c-0.079 0.045-0.577 0.062-0.631-0.143 0.217-0.102 0.532-0.068 0.631 0.143m1.474 7.659c0.332-0.12 0.386 0.411 0.07 0.358-0.058-0.083-0.093-0.191-0.07-0.358m1.263-0.715c0.104 0.236 0.078 0.612-0.141 0.715-0.054-0.378-0.368-0.259-0.702-0.214-0.128-0.586 0.384-0.516 0.843-0.501m0.35-4.366c0.249-0.018 0.364 0.104 0.352 0.358-0.174 0.152-0.519 0.053-0.494-0.215 0.081-0.016 0.111-0.08 0.142-0.143m2.595 0.571c-2e-3 0.094-0.09 0.098-0.069 0.216-0.431 0.056-0.613-0.137-0.841-0.286-0.061-0.4 0.112-0.678 0-0.932 0.213-0.05 0.252 0.076 0.419 0.073 0.045 0.277 0.059 0.295-0.07 0.501 0.252 0.076 0.486 0.174 0.561 0.428m0.352 0.572c0.028 0.139 0.151 0.182 0.139 0.361-0.25-0.174-0.962 0.121-0.841-0.43 0.352-0.052 0.415 0.244 0.702 0.069m1.681 0.144c0.534-0.025 0.204 0.406 0.283 0.859-0.805 0.128-1.225-0.134-1.545-0.501 0.201-0.086 0.174-0.396 0.351-0.502 0.042-0.279-0.485 0.02-0.42-0.284 0.391-3e-3 1.25 0.034 0.841 0.572 0.431-0.128 0.299 0.316 0.703 0.214-0.021-0.171-0.243-0.133-0.213-0.358m4.632-10.59c2e-3 -2.205 0.084-4.569 0-6.657-5.861 0.071-12.26-0.274-17.96 0.071-0.555 3.788-0.78 8.474-0.491 12.67 0.06 0.224 0.268 0.3 0.42 0.43 0.103 0.511-0.38 0.424-0.42 0.786 0.224 7.502-0.161 14.17-0.211 21.26 0.265 0.396 0.315 1.013 0.56 1.43 3.832 0.066 8.135-0.106 11.93 0.072 2.131 0.102 4.244 0.064 5.823-0.787-0.068-2.112 0.167-4.084 0-6.085-0.208-0.098-0.293-0.322-0.421-0.5-3.738 0.548-7.631 0.563-11.36 0 0.097-2.402 0.056-4.507 0.281-6.729 2.51-0.115 5.438 0.305 7.927 0.215-0.103-1.155 0.166-2.403 0.069-3.937-0.38-0.156-0.602 0.228-0.773-0.213 0.259-0.24 0.528-0.467 0.773-0.717-0.114-0.861-0.125-1.888-0.139-2.649-1.267-0.245-1.752 0.151-2.245 0.858-0.188-0.118 0.038-0.657-0.141-0.788-0.371-0.289-1.101-0.209-1.755-0.214-0.352 0.144 0.564 0.48 0.212 0.86-0.24 0.054-0.407-0.523-0.772-0.572-0.402-0.078-0.332 0.327-0.772 0.213-0.254-0.348 0.541-0.133 0.563-0.429-0.805-0.11-1.664-0.164-2.597-0.143-0.087-0.291-0.216-0.541-0.35-0.786 0.518-0.433 0.068-1.406-0.14-1.862-0.09-0.332 0.356-0.114 0.419-0.287 0.273-1.757-0.058-3.424 0-5.511z" style="fill:#fff" inkscape:connector-curvature="0"/></g><g transform="translate(429.7 179.6)"><path d="m0 0c-0.024-0.722 0.894 0.075 0.349 0.286-0.098-0.207 0.077-0.347-0.349-0.286m0.771-0.929c0.277 0.169 0.438-0.284 0.632 0.071-0.264 0.017-0.339 0.227-0.563 0.286 0.03-0.172-0.128-0.155-0.069-0.357m1.263 8.374c0.297-0.066 0.297 0.172 0.28 0.43h-0.209c-0.091-0.186-0.155-0.215-0.071-0.43m0.631-6.156c-0.044 0.17-0.094 0.334-0.281 0.358-0.018-0.232 0.083-0.347 0.281-0.358m5.752 16.1v0.215c-0.122 7e-3 -0.219-0.016-0.28-0.07-0.071-0.216 0.154-0.13 0.28-0.145m2.667-4.08c-0.084 0.937-0.056 1.65 0 2.505-1.992-0.028-3.633-0.098-5.754-0.072 0.033-0.88 0.13-1.723 0-2.576 1.907 0.215 3.823-0.027 5.754 0.143m3.016-15.32c0.341-0.063 0.359 0.205 0.702 0.143-0.044 0.285-0.738 0.114-0.702-0.143m0.209-1.075c0.301 0.098 0.702 0.096 0.632 0.574-0.131-0.016-0.155 0.08-0.28 0.07-0.152-0.18-0.225-0.437-0.352-0.644m0.562 17.82c-9e-3 0.305 0.427 0.428 0.28 0.644-0.255 0.021-0.457-0.012-0.631-0.071-0.026-0.394-0.126-0.6 0.351-0.573m0.841-23.98c0.033 0.226-0.06 0.32-0.279 0.287-0.031-0.31 0.055-0.397 0.279-0.287m0.422 0.216c0.054 0.349-0.126 0.402-0.351 0.287-0.015-0.232 0.251-0.176 0.351-0.287m2.105 29.56c-0.528-4.495-0.086-8.971-0.212-13.74-1.177-0.322-2.744-0.254-3.927-0.573 1.372-6.95 2.829-13.82 3.858-21.12-0.936 0.138-2.374-0.182-3.227 0-0.24 0.052-0.386 0.063-0.492 0.288-0.355 0.125-0.163-0.311-0.419-0.288-0.423 0.078-0.346 0.344-0.703 0.359-0.45 0.021-0.537-0.467-1.051-0.43-0.494 0.724-0.422 1.679-0.632 2.506-1.146 4.459-2.345 8.882-2.947 13.88-0.877 1.205-0.982 3.199-1.403 4.868-0.542-0.041-1.254 0.086-1.683-0.071-0.129-1.707 0.048-3.423 0.141-5.154 0.098-1.804-0.12-3.591 0-5.297 0.075-1.1 0.491-2.166 0.419-3.222-0.049-0.777-0.583-1.5-0.701-2.359-0.222-1.647 0.37-3.184 0.282-4.797-2.432-0.23-4.817 0.068-6.946-0.072 0.193 6.097 0.528 12.39 0.141 18.54-0.183 2.911-0.808 5.789-0.561 9.09 0.032 0.425 0.178 0.851 0.21 1.288 0.196 2.614-0.397 5.487 0.42 7.803 5.974-0.163 12.52 0.343 18.24 0.071 0.484-0.434 0.818-1.027 1.193-1.575" style="fill:#fff" inkscape:connector-curvature="0"/></g></g></g></g></g></svg>
